<?xml version="1.0" encoding="UTF-8" standalone="no"?><!DOCTYPE svg PUBLIC "-//W3C//DTD SVG 1.1//EN" "http://www.w3.org/Graphics/SVG/1.1/DTD/svg11.dtd"><!-- Generated by graphviz version 2.40.1 (20161225.0304)
 --><!-- Title: G Pages: 1 --><svg xmlns="http://www.w3.org/2000/svg" xmlns:xlink="http://www.w3.org/1999/xlink" width="1294pt" height="498pt" viewBox="0.00 0.00 1294.00 498.20">
<g id="graph0" class="graph" transform="scale(1 1) rotate(0) translate(4 494.2)">
<title>G</title>
<polygon fill="#ffffff" stroke="transparent" points="-4,4 -4,-494.2 1290,-494.2 1290,4 -4,4"/>
<g id="clust1" class="cluster">
<title>cluster_1</title>
<polygon fill="none" stroke="#000000" points="8,-191 8,-482.2 182,-482.2 182,-191 8,-191"/>
</g>
<g id="clust2" class="cluster">
<title>cluster_2</title>
<polygon fill="none" stroke="#000000" points="190,-191 190,-482.2 452,-482.2 452,-191 190,-191"/>
</g>
<g id="clust3" class="cluster">
<title>cluster_3</title>
<polygon fill="none" stroke="#000000" points="460,-8 460,-482.2 546,-482.2 546,-8 460,-8"/>
</g>
<g id="clust4" class="cluster">
<title>cluster_4</title>
<polygon fill="none" stroke="#000000" points="554,-191 554,-482.2 728,-482.2 728,-191 554,-191"/>
</g>
<g id="clust5" class="cluster">
<title>cluster_5</title>
<polygon fill="none" stroke="#000000" points="736,-191 736,-482.2 914,-482.2 914,-191 736,-191"/>
</g>
<g id="clust6" class="cluster">
<title>cluster_6</title>
<polygon fill="none" stroke="#000000" points="922,-191 922,-482.2 1096,-482.2 1096,-191 922,-191"/>
</g>
<g id="clust7" class="cluster">
<title>cluster_7</title>
<polygon fill="none" stroke="#000000" points="1104,-191 1104,-482.2 1278,-482.2 1278,-191 1104,-191"/>
</g>
<!-- 1 -->
<g id="node1" class="node">
<title>1</title>
<polygon fill="#f2f2f2" stroke="#000000" points="54.9079,-382.5 54.9079,-473.7 125.0921,-473.7 125.0921,-382.5 54.9079,-382.5"/>
<text text-anchor="middle" x="90" y="-457.1" font-family="Times,serif" font-size="14.00" fill="#000000">"Normal"</text>
<text text-anchor="middle" x="90" y="-440.3" font-family="Times,serif" font-size="14.00" fill="#000000">Class A</text>
<polyline fill="none" stroke="#000000" points="54.9079,-432.1 125.0921,-432.1 "/>
<text text-anchor="middle" x="90" y="-415.5" font-family="Times,serif" font-size="14.00" fill="#000000">...</text>
<polyline fill="none" stroke="#000000" points="54.9079,-407.3 125.0921,-407.3 "/>
<text text-anchor="middle" x="90" y="-390.7" font-family="Times,serif" font-size="14.00" fill="#000000">...</text>
</g>
<!-- 2 -->
<g id="node2" class="node">
<title>2</title>
<polygon fill="#f2f2f2" stroke="#000000" points="15.9079,-199.5 15.9079,-290.7 86.0921,-290.7 86.0921,-199.5 15.9079,-199.5"/>
<text text-anchor="middle" x="51" y="-274.1" font-family="Times,serif" font-size="14.00" fill="#000000">"Normal"</text>
<text text-anchor="middle" x="51" y="-257.3" font-family="Times,serif" font-size="14.00" fill="#000000">Class B</text>
<polyline fill="none" stroke="#000000" points="15.9079,-249.1 86.0921,-249.1 "/>
<text text-anchor="middle" x="51" y="-232.5" font-family="Times,serif" font-size="14.00" fill="#000000">...</text>
<polyline fill="none" stroke="#000000" points="15.9079,-224.3 86.0921,-224.3 "/>
<text text-anchor="middle" x="51" y="-207.7" font-family="Times,serif" font-size="14.00" fill="#000000">...</text>
</g>
<!-- 1&#45;&gt;2 -->
<g id="edge1" class="edge">
<title>1-&gt;2</title>
<path fill="none" stroke="#000000" d="M70.5,-370.3934C70.5,-370.3934 70.5,-290.8581 70.5,-290.8581"/>
<polygon fill="none" stroke="#000000" points="70.5001,-370.3934 74.5,-376.3935 70.5,-382.3934 66.5,-376.3934 70.5001,-370.3934"/>
<text text-anchor="middle" x="71.7769" y="-332.4" font-family="Times,serif" font-size="14.00" fill="#000000"> + has</text>
</g>
<!-- 3 -->
<g id="node3" class="node">
<title>3</title>
<polygon fill="#f2f2f2" stroke="#000000" points="103.9079,-199.5 103.9079,-290.7 174.0921,-290.7 174.0921,-199.5 103.9079,-199.5"/>
<text text-anchor="middle" x="139" y="-274.1" font-family="Times,serif" font-size="14.00" fill="#000000">"Normal"</text>
<text text-anchor="middle" x="139" y="-257.3" font-family="Times,serif" font-size="14.00" fill="#000000">Class C</text>
<polyline fill="none" stroke="#000000" points="103.9079,-249.1 174.0921,-249.1 "/>
<text text-anchor="middle" x="139" y="-232.5" font-family="Times,serif" font-size="14.00" fill="#000000">...</text>
<polyline fill="none" stroke="#000000" points="103.9079,-224.3 174.0921,-224.3 "/>
<text text-anchor="middle" x="139" y="-207.7" font-family="Times,serif" font-size="14.00" fill="#000000">...</text>
</g>
<!-- 1&#45;&gt;3 -->
<g id="edge2" class="edge">
<title>1-&gt;3</title>
<path fill="none" stroke="#000000" d="M114.5,-370.3934C114.5,-370.3934 114.5,-290.8581 114.5,-290.8581"/>
<polygon fill="none" stroke="#000000" points="114.5001,-370.3934 118.5,-376.3935 114.5,-382.3934 110.5,-376.3934 114.5001,-370.3934"/>
<text text-anchor="middle" x="150.7769" y="-332.4" font-family="Times,serif" font-size="14.00" fill="#000000"> + has</text>
</g>
<!-- 4 -->
<g id="node4" class="node">
<title>4</title>
<polygon fill="#f2f2f2" stroke="#000000" points="285.9079,-382.5 285.9079,-473.7 356.0921,-473.7 356.0921,-382.5 285.9079,-382.5"/>
<text text-anchor="middle" x="321" y="-457.1" font-family="Times,serif" font-size="14.00" fill="#000000">"Normal"</text>
<text text-anchor="middle" x="321" y="-440.3" font-family="Times,serif" font-size="14.00" fill="#000000">Class A</text>
<polyline fill="none" stroke="#000000" points="285.9079,-432.1 356.0921,-432.1 "/>
<text text-anchor="middle" x="321" y="-415.5" font-family="Times,serif" font-size="14.00" fill="#000000">...</text>
<polyline fill="none" stroke="#000000" points="285.9079,-407.3 356.0921,-407.3 "/>
<text text-anchor="middle" x="321" y="-390.7" font-family="Times,serif" font-size="14.00" fill="#000000">...</text>
</g>
<!-- 5 -->
<g id="node5" class="node">
<title>5</title>
<polygon fill="#f2f2f2" stroke="#000000" points="197.9079,-199.5 197.9079,-290.7 268.0921,-290.7 268.0921,-199.5 197.9079,-199.5"/>
<text text-anchor="middle" x="233" y="-274.1" font-family="Times,serif" font-size="14.00" fill="#000000">"Normal"</text>
<text text-anchor="middle" x="233" y="-257.3" font-family="Times,serif" font-size="14.00" fill="#000000">Class B</text>
<polyline fill="none" stroke="#000000" points="197.9079,-249.1 268.0921,-249.1 "/>
<text text-anchor="middle" x="233" y="-232.5" font-family="Times,serif" font-size="14.00" fill="#000000">...</text>
<polyline fill="none" stroke="#000000" points="197.9079,-224.3 268.0921,-224.3 "/>
<text text-anchor="middle" x="233" y="-207.7" font-family="Times,serif" font-size="14.00" fill="#000000">...</text>
</g>
<!-- 4&#45;&gt;5 -->
<g id="edge3" class="edge">
<title>4-&gt;5</title>
<path fill="none" stroke="#000000" d="M273.7141,-428C273.7141,-428 233,-428 233,-428 233,-428 233,-344.9553 233,-290.7816"/>
<polygon fill="none" stroke="#000000" points="273.7141,-428.0001 279.7141,-424 285.7141,-428 279.7141,-432 273.7141,-428.0001"/>
<text text-anchor="middle" x="258.7769" y="-332.4" font-family="Times,serif" font-size="14.00" fill="#000000"> + has</text>
</g>
<!-- 6 -->
<g id="node6" class="node">
<title>6</title>
<polygon fill="#f2f2f2" stroke="#000000" points="285.9079,-199.5 285.9079,-290.7 356.0921,-290.7 356.0921,-199.5 285.9079,-199.5"/>
<text text-anchor="middle" x="321" y="-274.1" font-family="Times,serif" font-size="14.00" fill="#000000">"Normal"</text>
<text text-anchor="middle" x="321" y="-257.3" font-family="Times,serif" font-size="14.00" fill="#000000">Class C</text>
<polyline fill="none" stroke="#000000" points="285.9079,-249.1 356.0921,-249.1 "/>
<text text-anchor="middle" x="321" y="-232.5" font-family="Times,serif" font-size="14.00" fill="#000000">...</text>
<polyline fill="none" stroke="#000000" points="285.9079,-224.3 356.0921,-224.3 "/>
<text text-anchor="middle" x="321" y="-207.7" font-family="Times,serif" font-size="14.00" fill="#000000">...</text>
</g>
<!-- 4&#45;&gt;6 -->
<g id="edge4" class="edge">
<title>4-&gt;6</title>
<path fill="none" stroke="#000000" d="M321,-370.3934C321,-370.3934 321,-290.8581 321,-290.8581"/>
<polygon fill="none" stroke="#000000" points="321.0001,-370.3934 325,-376.3935 321,-382.3934 317,-376.3934 321.0001,-370.3934"/>
<text text-anchor="middle" x="337.7769" y="-332.4" font-family="Times,serif" font-size="14.00" fill="#000000"> + has</text>
</g>
<!-- 7 -->
<g id="node7" class="node">
<title>7</title>
<polygon fill="#f2f2f2" stroke="#000000" points="373.9079,-199.5 373.9079,-290.7 444.0921,-290.7 444.0921,-199.5 373.9079,-199.5"/>
<text text-anchor="middle" x="409" y="-274.1" font-family="Times,serif" font-size="14.00" fill="#000000">"Normal"</text>
<text text-anchor="middle" x="409" y="-257.3" font-family="Times,serif" font-size="14.00" fill="#000000">Class D</text>
<polyline fill="none" stroke="#000000" points="373.9079,-249.1 444.0921,-249.1 "/>
<text text-anchor="middle" x="409" y="-232.5" font-family="Times,serif" font-size="14.00" fill="#000000">...</text>
<polyline fill="none" stroke="#000000" points="373.9079,-224.3 444.0921,-224.3 "/>
<text text-anchor="middle" x="409" y="-207.7" font-family="Times,serif" font-size="14.00" fill="#000000">...</text>
</g>
<!-- 4&#45;&gt;7 -->
<g id="edge5" class="edge">
<title>4-&gt;7</title>
<path fill="none" stroke="#000000" d="M368.2859,-428C368.2859,-428 409,-428 409,-428 409,-428 409,-344.9553 409,-290.7816"/>
<polygon fill="none" stroke="#000000" points="368.2859,-428.0001 362.2859,-432 356.2859,-428 362.2859,-424 368.2859,-428.0001"/>
<text text-anchor="middle" x="416.7769" y="-332.4" font-family="Times,serif" font-size="14.00" fill="#000000"> + has</text>
</g>
<!-- 8 -->
<g id="node8" class="node">
<title>8</title>
<polygon fill="#f2f2f2" stroke="#000000" points="467.9079,-382.5 467.9079,-473.7 538.0921,-473.7 538.0921,-382.5 467.9079,-382.5"/>
<text text-anchor="middle" x="503" y="-457.1" font-family="Times,serif" font-size="14.00" fill="#000000">"Normal"</text>
<text text-anchor="middle" x="503" y="-440.3" font-family="Times,serif" font-size="14.00" fill="#000000">Class A</text>
<polyline fill="none" stroke="#000000" points="467.9079,-432.1 538.0921,-432.1 "/>
<text text-anchor="middle" x="503" y="-415.5" font-family="Times,serif" font-size="14.00" fill="#000000">...</text>
<polyline fill="none" stroke="#000000" points="467.9079,-407.3 538.0921,-407.3 "/>
<text text-anchor="middle" x="503" y="-390.7" font-family="Times,serif" font-size="14.00" fill="#000000">...</text>
</g>
<!-- 9 -->
<g id="node9" class="node">
<title>9</title>
<polygon fill="#f2f2f2" stroke="#000000" points="467.9079,-199.5 467.9079,-290.7 538.0921,-290.7 538.0921,-199.5 467.9079,-199.5"/>
<text text-anchor="middle" x="503" y="-274.1" font-family="Times,serif" font-size="14.00" fill="#000000">"Normal"</text>
<text text-anchor="middle" x="503" y="-257.3" font-family="Times,serif" font-size="14.00" fill="#000000">Class B</text>
<polyline fill="none" stroke="#000000" points="467.9079,-249.1 538.0921,-249.1 "/>
<text text-anchor="middle" x="503" y="-232.5" font-family="Times,serif" font-size="14.00" fill="#000000">...</text>
<polyline fill="none" stroke="#000000" points="467.9079,-224.3 538.0921,-224.3 "/>
<text text-anchor="middle" x="503" y="-207.7" font-family="Times,serif" font-size="14.00" fill="#000000">...</text>
</g>
<!-- 8&#45;&gt;9 -->
<g id="edge6" class="edge">
<title>8-&gt;9</title>
<path fill="none" stroke="#000000" d="M503,-370.3934C503,-370.3934 503,-290.8581 503,-290.8581"/>
<polygon fill="none" stroke="#000000" points="503.0001,-370.3934 507,-376.3935 503,-382.3934 499,-376.3934 503.0001,-370.3934"/>
<text text-anchor="middle" x="519.7769" y="-332.4" font-family="Times,serif" font-size="14.00" fill="#000000"> + has</text>
</g>
<!-- 10 -->
<g id="node10" class="node">
<title>10</title>
<polygon fill="#f2f2f2" stroke="#000000" points="467.9079,-16.5 467.9079,-107.7 538.0921,-107.7 538.0921,-16.5 467.9079,-16.5"/>
<text text-anchor="middle" x="503" y="-91.1" font-family="Times,serif" font-size="14.00" fill="#000000">"Normal"</text>
<text text-anchor="middle" x="503" y="-74.3" font-family="Times,serif" font-size="14.00" fill="#000000">Class C</text>
<polyline fill="none" stroke="#000000" points="467.9079,-66.1 538.0921,-66.1 "/>
<text text-anchor="middle" x="503" y="-49.5" font-family="Times,serif" font-size="14.00" fill="#000000">...</text>
<polyline fill="none" stroke="#000000" points="467.9079,-41.3 538.0921,-41.3 "/>
<text text-anchor="middle" x="503" y="-24.7" font-family="Times,serif" font-size="14.00" fill="#000000">...</text>
</g>
<!-- 9&#45;&gt;10 -->
<g id="edge7" class="edge">
<title>9-&gt;10</title>
<path fill="none" stroke="#000000" d="M503,-187.3934C503,-187.3934 503,-107.8581 503,-107.8581"/>
<polygon fill="none" stroke="#000000" points="503.0001,-187.3934 507,-193.3935 503,-199.3934 499,-193.3934 503.0001,-187.3934"/>
<text text-anchor="middle" x="519.7769" y="-149.4" font-family="Times,serif" font-size="14.00" fill="#000000"> + has</text>
</g>
<!-- 11 -->
<g id="node11" class="node">
<title>11</title>
<polygon fill="#f2f2f2" stroke="#000000" points="605.9079,-382.5 605.9079,-473.7 676.0921,-473.7 676.0921,-382.5 605.9079,-382.5"/>
<text text-anchor="middle" x="641" y="-457.1" font-family="Times,serif" font-size="14.00" fill="#000000">"Normal"</text>
<text text-anchor="middle" x="641" y="-440.3" font-family="Times,serif" font-size="14.00" fill="#000000">Class A</text>
<polyline fill="none" stroke="#000000" points="605.9079,-432.1 676.0921,-432.1 "/>
<text text-anchor="middle" x="641" y="-415.5" font-family="Times,serif" font-size="14.00" fill="#000000">...</text>
<polyline fill="none" stroke="#000000" points="605.9079,-407.3 676.0921,-407.3 "/>
<text text-anchor="middle" x="641" y="-390.7" font-family="Times,serif" font-size="14.00" fill="#000000">...</text>
</g>
<!-- 12 -->
<g id="node12" class="node">
<title>12</title>
<polygon fill="#f2f2f2" stroke="#000000" points="561.9079,-199.5 561.9079,-290.7 632.0921,-290.7 632.0921,-199.5 561.9079,-199.5"/>
<text text-anchor="middle" x="597" y="-274.1" font-family="Times,serif" font-size="14.00" fill="#000000">"Normal"</text>
<text text-anchor="middle" x="597" y="-257.3" font-family="Times,serif" font-size="14.00" fill="#000000">Class B</text>
<polyline fill="none" stroke="#000000" points="561.9079,-249.1 632.0921,-249.1 "/>
<text text-anchor="middle" x="597" y="-232.5" font-family="Times,serif" font-size="14.00" fill="#000000">...</text>
<polyline fill="none" stroke="#000000" points="561.9079,-224.3 632.0921,-224.3 "/>
<text text-anchor="middle" x="597" y="-207.7" font-family="Times,serif" font-size="14.00" fill="#000000">...</text>
</g>
<!-- 11&#45;&gt;12 -->
<g id="edge8" class="edge">
<title>11-&gt;12</title>
<path fill="none" stroke="#000000" d="M619,-370.3934C619,-370.3934 619,-290.8581 619,-290.8581"/>
<polygon fill="none" stroke="#000000" points="619.0001,-370.3934 623,-376.3935 619,-382.3934 615,-376.3934 619.0001,-370.3934"/>
<text text-anchor="middle" x="617.7769" y="-332.4" font-family="Times,serif" font-size="14.00" fill="#000000"> + has</text>
</g>
<!-- 13 -->
<g id="node13" class="node">
<title>13</title>
<polygon fill="#f2f2f2" stroke="#000000" points="649.9079,-199.5 649.9079,-290.7 720.0921,-290.7 720.0921,-199.5 649.9079,-199.5"/>
<text text-anchor="middle" x="685" y="-274.1" font-family="Times,serif" font-size="14.00" fill="#000000">"Normal"</text>
<text text-anchor="middle" x="685" y="-257.3" font-family="Times,serif" font-size="14.00" fill="#000000">Class C</text>
<polyline fill="none" stroke="#000000" points="649.9079,-249.1 720.0921,-249.1 "/>
<text text-anchor="middle" x="685" y="-232.5" font-family="Times,serif" font-size="14.00" fill="#000000">...</text>
<polyline fill="none" stroke="#000000" points="649.9079,-224.3 720.0921,-224.3 "/>
<text text-anchor="middle" x="685" y="-207.7" font-family="Times,serif" font-size="14.00" fill="#000000">...</text>
</g>
<!-- 11&#45;&gt;13 -->
<g id="edge9" class="edge">
<title>11-&gt;13</title>
<path fill="none" stroke="#000000" d="M663,-370.3934C663,-370.3934 663,-290.8581 663,-290.8581"/>
<polygon fill="none" stroke="#000000" points="663.0001,-370.3934 667,-376.3935 663,-382.3934 659,-376.3934 663.0001,-370.3934"/>
<text text-anchor="middle" x="695.1599" y="-332.4" font-family="Times,serif" font-size="14.00" fill="#000000"> - has</text>
</g>
<!-- 14 -->
<g id="node14" class="node">
<title>14</title>
<polygon fill="#f2f2f2" stroke="#000000" points="780.9079,-382.5 780.9079,-473.7 851.0921,-473.7 851.0921,-382.5 780.9079,-382.5"/>
<text text-anchor="middle" x="816" y="-457.1" font-family="Times,serif" font-size="14.00" fill="#000000">"Normal"</text>
<text text-anchor="middle" x="816" y="-440.3" font-family="Times,serif" font-size="14.00" fill="#000000">Class A</text>
<polyline fill="none" stroke="#000000" points="780.9079,-432.1 851.0921,-432.1 "/>
<text text-anchor="middle" x="816" y="-415.5" font-family="Times,serif" font-size="14.00" fill="#000000">...</text>
<polyline fill="none" stroke="#000000" points="780.9079,-407.3 851.0921,-407.3 "/>
<text text-anchor="middle" x="816" y="-390.7" font-family="Times,serif" font-size="14.00" fill="#000000">...</text>
</g>
<!-- 15 -->
<g id="node15" class="node">
<title>15</title>
<polygon fill="#f2f2f2" stroke="#000000" points="743.9079,-199.5 743.9079,-290.7 814.0921,-290.7 814.0921,-199.5 743.9079,-199.5"/>
<text text-anchor="middle" x="779" y="-274.1" font-family="Times,serif" font-size="14.00" fill="#000000">"Normal"</text>
<text text-anchor="middle" x="779" y="-257.3" font-family="Times,serif" font-size="14.00" fill="#000000">Class B</text>
<polyline fill="none" stroke="#000000" points="743.9079,-249.1 814.0921,-249.1 "/>
<text text-anchor="middle" x="779" y="-232.5" font-family="Times,serif" font-size="14.00" fill="#000000">...</text>
<polyline fill="none" stroke="#000000" points="743.9079,-224.3 814.0921,-224.3 "/>
<text text-anchor="middle" x="779" y="-207.7" font-family="Times,serif" font-size="14.00" fill="#000000">...</text>
</g>
<!-- 14&#45;&gt;15 -->
<g id="edge10" class="edge">
<title>14-&gt;15</title>
<path fill="none" stroke="#000000" d="M797.5,-370.3934C797.5,-370.3934 797.5,-290.8581 797.5,-290.8581"/>
<polygon fill="#000000" stroke="#000000" points="797.5001,-370.3934 801.5,-376.3935 797.5,-382.3934 793.5,-376.3934 797.5001,-370.3934"/>
<text text-anchor="middle" x="788.8744" y="-332.4" font-family="Times,serif" font-size="14.00" fill="#000000"> + creates</text>
</g>
<!-- 16 -->
<g id="node16" class="node">
<title>16</title>
<polygon fill="#f2f2f2" stroke="#000000" points="831.9079,-199.5 831.9079,-290.7 902.0921,-290.7 902.0921,-199.5 831.9079,-199.5"/>
<text text-anchor="middle" x="867" y="-274.1" font-family="Times,serif" font-size="14.00" fill="#000000">"Normal"</text>
<text text-anchor="middle" x="867" y="-257.3" font-family="Times,serif" font-size="14.00" fill="#000000">Class C</text>
<polyline fill="none" stroke="#000000" points="831.9079,-249.1 902.0921,-249.1 "/>
<text text-anchor="middle" x="867" y="-232.5" font-family="Times,serif" font-size="14.00" fill="#000000">...</text>
<polyline fill="none" stroke="#000000" points="831.9079,-224.3 902.0921,-224.3 "/>
<text text-anchor="middle" x="867" y="-207.7" font-family="Times,serif" font-size="14.00" fill="#000000">...</text>
</g>
<!-- 14&#45;&gt;16 -->
<g id="edge11" class="edge">
<title>14-&gt;16</title>
<path fill="none" stroke="#000000" d="M841.5,-370.3934C841.5,-370.3934 841.5,-290.8581 841.5,-290.8581"/>
<polygon fill="#000000" stroke="#000000" points="841.5001,-370.3934 845.5,-376.3935 841.5,-382.3934 837.5,-376.3934 841.5001,-370.3934"/>
<text text-anchor="middle" x="878.8744" y="-332.4" font-family="Times,serif" font-size="14.00" fill="#000000"> + creates</text>
</g>
<!-- 17 -->
<g id="node17" class="node">
<title>17</title>
<polygon fill="#f2f2f2" stroke="#000000" points="973.9079,-382.5 973.9079,-473.7 1044.0921,-473.7 1044.0921,-382.5 973.9079,-382.5"/>
<text text-anchor="middle" x="1009" y="-457.1" font-family="Times,serif" font-size="14.00" fill="#000000">"Normal"</text>
<text text-anchor="middle" x="1009" y="-440.3" font-family="Times,serif" font-size="14.00" fill="#000000">Class A</text>
<polyline fill="none" stroke="#000000" points="973.9079,-432.1 1044.0921,-432.1 "/>
<text text-anchor="middle" x="1009" y="-415.5" font-family="Times,serif" font-size="14.00" fill="#000000">...</text>
<polyline fill="none" stroke="#000000" points="973.9079,-407.3 1044.0921,-407.3 "/>
<text text-anchor="middle" x="1009" y="-390.7" font-family="Times,serif" font-size="14.00" fill="#000000">...</text>
</g>
<!-- 18 -->
<g id="node18" class="node">
<title>18</title>
<polygon fill="#f2f2f2" stroke="#000000" points="929.9079,-199.5 929.9079,-290.7 1000.0921,-290.7 1000.0921,-199.5 929.9079,-199.5"/>
<text text-anchor="middle" x="965" y="-274.1" font-family="Times,serif" font-size="14.00" fill="#000000">"Normal"</text>
<text text-anchor="middle" x="965" y="-257.3" font-family="Times,serif" font-size="14.00" fill="#000000">Class B</text>
<polyline fill="none" stroke="#000000" points="929.9079,-249.1 1000.0921,-249.1 "/>
<text text-anchor="middle" x="965" y="-232.5" font-family="Times,serif" font-size="14.00" fill="#000000">...</text>
<polyline fill="none" stroke="#000000" points="929.9079,-224.3 1000.0921,-224.3 "/>
<text text-anchor="middle" x="965" y="-207.7" font-family="Times,serif" font-size="14.00" fill="#000000">...</text>
</g>
<!-- 17&#45;&gt;18 -->
<g id="edge12" class="edge">
<title>17-&gt;18</title>
<path fill="none" stroke="#000000" d="M987,-370.3934C987,-370.3934 987,-290.8581 987,-290.8581"/>
<polygon fill="#000000" stroke="#000000" points="987.0001,-370.3934 991,-376.3935 987,-382.3934 983,-376.3934 987.0001,-370.3934"/>
<text text-anchor="middle" x="989.8744" y="-332.4" font-family="Times,serif" font-size="14.00" fill="#000000"> + creates</text>
</g>
<!-- 19 -->
<g id="node19" class="node">
<title>19</title>
<polygon fill="#f2f2f2" stroke="#000000" points="1017.9079,-199.5 1017.9079,-290.7 1088.0921,-290.7 1088.0921,-199.5 1017.9079,-199.5"/>
<text text-anchor="middle" x="1053" y="-274.1" font-family="Times,serif" font-size="14.00" fill="#000000">"Normal"</text>
<text text-anchor="middle" x="1053" y="-257.3" font-family="Times,serif" font-size="14.00" fill="#000000">Class C</text>
<polyline fill="none" stroke="#000000" points="1017.9079,-249.1 1088.0921,-249.1 "/>
<text text-anchor="middle" x="1053" y="-232.5" font-family="Times,serif" font-size="14.00" fill="#000000">...</text>
<polyline fill="none" stroke="#000000" points="1017.9079,-224.3 1088.0921,-224.3 "/>
<text text-anchor="middle" x="1053" y="-207.7" font-family="Times,serif" font-size="14.00" fill="#000000">...</text>
</g>
<!-- 17&#45;&gt;19 -->
<g id="edge13" class="edge">
<title>17-&gt;19</title>
<path fill="none" stroke="#000000" d="M1031,-370.3934C1031,-370.3934 1031,-290.8581 1031,-290.8581"/>
<polygon fill="none" stroke="#000000" points="1031.0001,-370.3934 1035,-376.3935 1031,-382.3934 1027,-376.3934 1031.0001,-370.3934"/>
<text text-anchor="middle" x="1069.7769" y="-332.4" font-family="Times,serif" font-size="14.00" fill="#000000"> + has</text>
</g>
<!-- 20 -->
<g id="node20" class="node">
<title>20</title>
<polygon fill="#f2f2f2" stroke="#000000" points="1155.9079,-382.5 1155.9079,-473.7 1226.0921,-473.7 1226.0921,-382.5 1155.9079,-382.5"/>
<text text-anchor="middle" x="1191" y="-457.1" font-family="Times,serif" font-size="14.00" fill="#000000">"Normal"</text>
<text text-anchor="middle" x="1191" y="-440.3" font-family="Times,serif" font-size="14.00" fill="#000000">Class A</text>
<polyline fill="none" stroke="#000000" points="1155.9079,-432.1 1226.0921,-432.1 "/>
<text text-anchor="middle" x="1191" y="-415.5" font-family="Times,serif" font-size="14.00" fill="#000000">...</text>
<polyline fill="none" stroke="#000000" points="1155.9079,-407.3 1226.0921,-407.3 "/>
<text text-anchor="middle" x="1191" y="-390.7" font-family="Times,serif" font-size="14.00" fill="#000000">...</text>
</g>
<!-- 21 -->
<g id="node21" class="node">
<title>21</title>
<polygon fill="#f2f2f2" stroke="#000000" points="1111.9079,-199.5 1111.9079,-290.7 1182.0921,-290.7 1182.0921,-199.5 1111.9079,-199.5"/>
<text text-anchor="middle" x="1147" y="-274.1" font-family="Times,serif" font-size="14.00" fill="#000000">"Normal"</text>
<text text-anchor="middle" x="1147" y="-257.3" font-family="Times,serif" font-size="14.00" fill="#000000">Class B</text>
<polyline fill="none" stroke="#000000" points="1111.9079,-249.1 1182.0921,-249.1 "/>
<text text-anchor="middle" x="1147" y="-232.5" font-family="Times,serif" font-size="14.00" fill="#000000">...</text>
<polyline fill="none" stroke="#000000" points="1111.9079,-224.3 1182.0921,-224.3 "/>
<text text-anchor="middle" x="1147" y="-207.7" font-family="Times,serif" font-size="14.00" fill="#000000">...</text>
</g>
<!-- 20&#45;&gt;21 -->
<g id="edge14" class="edge">
<title>20-&gt;21</title>
<path fill="none" stroke="#000000" d="M1169,-370.3934C1169,-370.3934 1169,-290.8581 1169,-290.8581"/>
<polygon fill="none" stroke="#000000" points="1169.0001,-370.3934 1173,-376.3935 1169,-382.3934 1165,-376.3934 1169.0001,-370.3934"/>
<text text-anchor="middle" x="1167.1599" y="-332.4" font-family="Times,serif" font-size="14.00" fill="#000000"> - has</text>
</g>
<!-- 22 -->
<g id="node22" class="node">
<title>22</title>
<polygon fill="#f2f2f2" stroke="#000000" points="1199.9079,-199.5 1199.9079,-290.7 1270.0921,-290.7 1270.0921,-199.5 1199.9079,-199.5"/>
<text text-anchor="middle" x="1235" y="-274.1" font-family="Times,serif" font-size="14.00" fill="#000000">"Normal"</text>
<text text-anchor="middle" x="1235" y="-257.3" font-family="Times,serif" font-size="14.00" fill="#000000">Class C</text>
<polyline fill="none" stroke="#000000" points="1199.9079,-249.1 1270.0921,-249.1 "/>
<text text-anchor="middle" x="1235" y="-232.5" font-family="Times,serif" font-size="14.00" fill="#000000">...</text>
<polyline fill="none" stroke="#000000" points="1199.9079,-224.3 1270.0921,-224.3 "/>
<text text-anchor="middle" x="1235" y="-207.7" font-family="Times,serif" font-size="14.00" fill="#000000">...</text>
</g>
<!-- 20&#45;&gt;22 -->
<g id="edge15" class="edge">
<title>20-&gt;22</title>
<path fill="none" stroke="#000000" d="M1213,-370.3934C1213,-370.3934 1213,-290.8581 1213,-290.8581"/>
<polygon fill="none" stroke="#000000" points="1213.0001,-370.3934 1217,-376.3935 1213,-382.3934 1209,-376.3934 1213.0001,-370.3934"/>
<text text-anchor="middle" x="1244.1599" y="-332.4" font-family="Times,serif" font-size="14.00" fill="#000000"> - has</text>
</g>
</g>
</svg>