<?xml version="1.0" encoding="UTF-8" standalone="no"?><!DOCTYPE svg PUBLIC "-//W3C//DTD SVG 1.1//EN" "http://www.w3.org/Graphics/SVG/1.1/DTD/svg11.dtd"><!-- Generated by graphviz version 2.40.1 (20161225.0304)
 --><!-- Title: G Pages: 1 --><svg xmlns="http://www.w3.org/2000/svg" xmlns:xlink="http://www.w3.org/1999/xlink" width="468pt" height="315pt" viewBox="0.00 0.00 468.00 315.20">
<g id="graph0" class="graph" transform="scale(1 1) rotate(0) translate(4 311.2)">
<title>G</title>
<polygon fill="#ffffff" stroke="transparent" points="-4,4 -4,-311.2 464,-311.2 464,4 -4,4"/>
<g id="clust1" class="cluster">
<title>cluster_1</title>
<polygon fill="none" stroke="#000000" points="8,-8 8,-299.2 182,-299.2 182,-8 8,-8"/>
</g>
<g id="clust2" class="cluster">
<title>cluster_2</title>
<polygon fill="none" stroke="#000000" points="190,-8 190,-299.2 452,-299.2 452,-8 190,-8"/>
</g>
<!-- 1 -->
<g id="node1" class="node">
<title>1</title>
<polygon fill="#f2f2f2" stroke="#000000" points="59.9079,-199.5 59.9079,-290.7 130.0921,-290.7 130.0921,-199.5 59.9079,-199.5"/>
<text text-anchor="middle" x="95" y="-274.1" font-family="Times,serif" font-size="14.00" fill="#000000">"Normal"</text>
<text text-anchor="middle" x="95" y="-257.3" font-family="Times,serif" font-size="14.00" fill="#000000">Class A</text>
<polyline fill="none" stroke="#000000" points="59.9079,-249.1 130.0921,-249.1 "/>
<text text-anchor="middle" x="95" y="-232.5" font-family="Times,serif" font-size="14.00" fill="#000000">...</text>
<polyline fill="none" stroke="#000000" points="59.9079,-224.3 130.0921,-224.3 "/>
<text text-anchor="middle" x="95" y="-207.7" font-family="Times,serif" font-size="14.00" fill="#000000">...</text>
</g>
<!-- 2 -->
<g id="node2" class="node">
<title>2</title>
<polygon fill="#f2f2f2" stroke="#000000" points="15.9079,-16.5 15.9079,-107.7 86.0921,-107.7 86.0921,-16.5 15.9079,-16.5"/>
<text text-anchor="middle" x="51" y="-91.1" font-family="Times,serif" font-size="14.00" fill="#000000">"Normal"</text>
<text text-anchor="middle" x="51" y="-74.3" font-family="Times,serif" font-size="14.00" fill="#000000">Class B</text>
<polyline fill="none" stroke="#000000" points="15.9079,-66.1 86.0921,-66.1 "/>
<text text-anchor="middle" x="51" y="-49.5" font-family="Times,serif" font-size="14.00" fill="#000000">...</text>
<polyline fill="none" stroke="#000000" points="15.9079,-41.3 86.0921,-41.3 "/>
<text text-anchor="middle" x="51" y="-24.7" font-family="Times,serif" font-size="14.00" fill="#000000">...</text>
</g>
<!-- 1&#45;&gt;2 -->
<g id="edge1" class="edge">
<title>1-&gt;2</title>
<path fill="none" stroke="#000000" d="M73,-187.3934C73,-187.3934 73,-107.8581 73,-107.8581"/>
<polygon fill="none" stroke="#000000" points="73.0001,-187.3934 77,-193.3935 73,-199.3934 69,-193.3934 73.0001,-187.3934"/>
<text text-anchor="middle" x="71.7769" y="-149.4" font-family="Times,serif" font-size="14.00" fill="#000000"> + has</text>
</g>
<!-- 3 -->
<g id="node3" class="node">
<title>3</title>
<polygon fill="#f2f2f2" stroke="#000000" points="103.9079,-16.5 103.9079,-107.7 174.0921,-107.7 174.0921,-16.5 103.9079,-16.5"/>
<text text-anchor="middle" x="139" y="-91.1" font-family="Times,serif" font-size="14.00" fill="#000000">"Normal"</text>
<text text-anchor="middle" x="139" y="-74.3" font-family="Times,serif" font-size="14.00" fill="#000000">Class C</text>
<polyline fill="none" stroke="#000000" points="103.9079,-66.1 174.0921,-66.1 "/>
<text text-anchor="middle" x="139" y="-49.5" font-family="Times,serif" font-size="14.00" fill="#000000">...</text>
<polyline fill="none" stroke="#000000" points="103.9079,-41.3 174.0921,-41.3 "/>
<text text-anchor="middle" x="139" y="-24.7" font-family="Times,serif" font-size="14.00" fill="#000000">...</text>
</g>
<!-- 1&#45;&gt;3 -->
<g id="edge2" class="edge">
<title>1-&gt;3</title>
<path fill="none" stroke="#000000" d="M117,-187.3934C117,-187.3934 117,-107.8581 117,-107.8581"/>
<polygon fill="none" stroke="#000000" points="117.0001,-187.3934 121,-193.3935 117,-199.3934 113,-193.3934 117.0001,-187.3934"/>
<text text-anchor="middle" x="150.7769" y="-149.4" font-family="Times,serif" font-size="14.00" fill="#000000"> + has</text>
</g>
<!-- 4 -->
<g id="node4" class="node">
<title>4</title>
<polygon fill="#f2f2f2" stroke="#000000" points="285.9079,-199.5 285.9079,-290.7 356.0921,-290.7 356.0921,-199.5 285.9079,-199.5"/>
<text text-anchor="middle" x="321" y="-274.1" font-family="Times,serif" font-size="14.00" fill="#000000">"Normal"</text>
<text text-anchor="middle" x="321" y="-257.3" font-family="Times,serif" font-size="14.00" fill="#000000">Class A</text>
<polyline fill="none" stroke="#000000" points="285.9079,-249.1 356.0921,-249.1 "/>
<text text-anchor="middle" x="321" y="-232.5" font-family="Times,serif" font-size="14.00" fill="#000000">...</text>
<polyline fill="none" stroke="#000000" points="285.9079,-224.3 356.0921,-224.3 "/>
<text text-anchor="middle" x="321" y="-207.7" font-family="Times,serif" font-size="14.00" fill="#000000">...</text>
</g>
<!-- 5 -->
<g id="node5" class="node">
<title>5</title>
<polygon fill="#f2f2f2" stroke="#000000" points="197.9079,-16.5 197.9079,-107.7 268.0921,-107.7 268.0921,-16.5 197.9079,-16.5"/>
<text text-anchor="middle" x="233" y="-91.1" font-family="Times,serif" font-size="14.00" fill="#000000">"Normal"</text>
<text text-anchor="middle" x="233" y="-74.3" font-family="Times,serif" font-size="14.00" fill="#000000">Class B</text>
<polyline fill="none" stroke="#000000" points="197.9079,-66.1 268.0921,-66.1 "/>
<text text-anchor="middle" x="233" y="-49.5" font-family="Times,serif" font-size="14.00" fill="#000000">...</text>
<polyline fill="none" stroke="#000000" points="197.9079,-41.3 268.0921,-41.3 "/>
<text text-anchor="middle" x="233" y="-24.7" font-family="Times,serif" font-size="14.00" fill="#000000">...</text>
</g>
<!-- 4&#45;&gt;5 -->
<g id="edge3" class="edge">
<title>4-&gt;5</title>
<path fill="none" stroke="#000000" d="M273.7141,-245C273.7141,-245 233,-245 233,-245 233,-245 233,-161.9553 233,-107.7816"/>
<polygon fill="none" stroke="#000000" points="273.7141,-245.0001 279.7141,-241 285.7141,-245 279.7141,-249 273.7141,-245.0001"/>
<text text-anchor="middle" x="258.7769" y="-149.4" font-family="Times,serif" font-size="14.00" fill="#000000"> + has</text>
</g>
<!-- 6 -->
<g id="node6" class="node">
<title>6</title>
<polygon fill="#f2f2f2" stroke="#000000" points="285.9079,-16.5 285.9079,-107.7 356.0921,-107.7 356.0921,-16.5 285.9079,-16.5"/>
<text text-anchor="middle" x="321" y="-91.1" font-family="Times,serif" font-size="14.00" fill="#000000">"Normal"</text>
<text text-anchor="middle" x="321" y="-74.3" font-family="Times,serif" font-size="14.00" fill="#000000">Class C</text>
<polyline fill="none" stroke="#000000" points="285.9079,-66.1 356.0921,-66.1 "/>
<text text-anchor="middle" x="321" y="-49.5" font-family="Times,serif" font-size="14.00" fill="#000000">...</text>
<polyline fill="none" stroke="#000000" points="285.9079,-41.3 356.0921,-41.3 "/>
<text text-anchor="middle" x="321" y="-24.7" font-family="Times,serif" font-size="14.00" fill="#000000">...</text>
</g>
<!-- 4&#45;&gt;6 -->
<g id="edge4" class="edge">
<title>4-&gt;6</title>
<path fill="none" stroke="#000000" d="M321,-187.3934C321,-187.3934 321,-107.8581 321,-107.8581"/>
<polygon fill="none" stroke="#000000" points="321.0001,-187.3934 325,-193.3935 321,-199.3934 317,-193.3934 321.0001,-187.3934"/>
<text text-anchor="middle" x="337.7769" y="-149.4" font-family="Times,serif" font-size="14.00" fill="#000000"> + has</text>
</g>
<!-- 7 -->
<g id="node7" class="node">
<title>7</title>
<polygon fill="#f2f2f2" stroke="#000000" points="373.9079,-16.5 373.9079,-107.7 444.0921,-107.7 444.0921,-16.5 373.9079,-16.5"/>
<text text-anchor="middle" x="409" y="-91.1" font-family="Times,serif" font-size="14.00" fill="#000000">"Normal"</text>
<text text-anchor="middle" x="409" y="-74.3" font-family="Times,serif" font-size="14.00" fill="#000000">Class D</text>
<polyline fill="none" stroke="#000000" points="373.9079,-66.1 444.0921,-66.1 "/>
<text text-anchor="middle" x="409" y="-49.5" font-family="Times,serif" font-size="14.00" fill="#000000">...</text>
<polyline fill="none" stroke="#000000" points="373.9079,-41.3 444.0921,-41.3 "/>
<text text-anchor="middle" x="409" y="-24.7" font-family="Times,serif" font-size="14.00" fill="#000000">...</text>
</g>
<!-- 4&#45;&gt;7 -->
<g id="edge5" class="edge">
<title>4-&gt;7</title>
<path fill="none" stroke="#000000" d="M368.2859,-245C368.2859,-245 409,-245 409,-245 409,-245 409,-161.9553 409,-107.7816"/>
<polygon fill="none" stroke="#000000" points="368.2859,-245.0001 362.2859,-249 356.2859,-245 362.2859,-241 368.2859,-245.0001"/>
<text text-anchor="middle" x="416.7769" y="-149.4" font-family="Times,serif" font-size="14.00" fill="#000000"> + has</text>
</g>
</g>
</svg>