<?xml version="1.0" encoding="UTF-8" standalone="no"?><!DOCTYPE svg PUBLIC "-//W3C//DTD SVG 1.1//EN" "http://www.w3.org/Graphics/SVG/1.1/DTD/svg11.dtd"><!-- Generated by graphviz version 2.40.1 (20161225.0304)
 --><!-- Title: G Pages: 1 --><svg xmlns="http://www.w3.org/2000/svg" xmlns:xlink="http://www.w3.org/1999/xlink" width="1955pt" height="498pt" viewBox="0.00 0.00 1955.00 498.20">
<g id="graph0" class="graph" transform="scale(1 1) rotate(0) translate(4 494.2)">
<title>G</title>
<polygon fill="#ffffff" stroke="transparent" points="-4,4 -4,-494.2 1951,-494.2 1951,4 -4,4"/>
<g id="clust1" class="cluster">
<title>cluster_1</title>
<polygon fill="none" stroke="#000000" points="8,-191 8,-482.2 182,-482.2 182,-191 8,-191"/>
</g>
<g id="clust2" class="cluster">
<title>cluster_2</title>
<polygon fill="none" stroke="#000000" points="190,-191 190,-482.2 452,-482.2 452,-191 190,-191"/>
</g>
<g id="clust3" class="cluster">
<title>cluster_3</title>
<polygon fill="none" stroke="#000000" points="460,-8 460,-482.2 546,-482.2 546,-8 460,-8"/>
</g>
<g id="clust4" class="cluster">
<title>cluster_4</title>
<polygon fill="none" stroke="#000000" points="554,-191 554,-482.2 728,-482.2 728,-191 554,-191"/>
</g>
<g id="clust5" class="cluster">
<title>cluster_5</title>
<polygon fill="none" stroke="#000000" points="736,-8 736,-482.2 842,-482.2 842,-8 736,-8"/>
</g>
<g id="clust6" class="cluster">
<title>cluster_6</title>
<polygon fill="none" stroke="#000000" points="850,-191 850,-482.2 1028,-482.2 1028,-191 850,-191"/>
</g>
<g id="clust7" class="cluster">
<title>cluster_7</title>
<polygon fill="none" stroke="#000000" points="1036,-191 1036,-482.2 1211,-482.2 1211,-191 1036,-191"/>
</g>
<g id="clust8" class="cluster">
<title>cluster_8</title>
<polygon fill="none" stroke="#000000" points="1219,-191 1219,-482.2 1393,-482.2 1393,-191 1219,-191"/>
</g>
<g id="clust9" class="cluster">
<title>cluster_9</title>
<polygon fill="none" stroke="#000000" points="1401,-191 1401,-482.2 1575,-482.2 1575,-191 1401,-191"/>
</g>
<g id="clust10" class="cluster">
<title>cluster_10</title>
<polygon fill="none" stroke="#000000" points="1583,-191 1583,-482.2 1757,-482.2 1757,-191 1583,-191"/>
</g>
<g id="clust11" class="cluster">
<title>cluster_11</title>
<polygon fill="none" stroke="#000000" points="1765,-191 1765,-482.2 1939,-482.2 1939,-191 1765,-191"/>
</g>
<!-- 1 -->
<g id="node1" class="node">
<title>1</title>
<polygon fill="#f2f2f2" stroke="#000000" points="54.9079,-382.5 54.9079,-473.7 125.0921,-473.7 125.0921,-382.5 54.9079,-382.5"/>
<text text-anchor="middle" x="90" y="-457.1" font-family="Times,serif" font-size="14.00" fill="#000000">"Normal"</text>
<text text-anchor="middle" x="90" y="-440.3" font-family="Times,serif" font-size="14.00" fill="#000000">Class A</text>
<polyline fill="none" stroke="#000000" points="54.9079,-432.1 125.0921,-432.1 "/>
<text text-anchor="middle" x="90" y="-415.5" font-family="Times,serif" font-size="14.00" fill="#000000">...</text>
<polyline fill="none" stroke="#000000" points="54.9079,-407.3 125.0921,-407.3 "/>
<text text-anchor="middle" x="90" y="-390.7" font-family="Times,serif" font-size="14.00" fill="#000000">...</text>
</g>
<!-- 2 -->
<g id="node2" class="node">
<title>2</title>
<polygon fill="#f2f2f2" stroke="#000000" points="15.9079,-199.5 15.9079,-290.7 86.0921,-290.7 86.0921,-199.5 15.9079,-199.5"/>
<text text-anchor="middle" x="51" y="-274.1" font-family="Times,serif" font-size="14.00" fill="#000000">"Normal"</text>
<text text-anchor="middle" x="51" y="-257.3" font-family="Times,serif" font-size="14.00" fill="#000000">Class B</text>
<polyline fill="none" stroke="#000000" points="15.9079,-249.1 86.0921,-249.1 "/>
<text text-anchor="middle" x="51" y="-232.5" font-family="Times,serif" font-size="14.00" fill="#000000">...</text>
<polyline fill="none" stroke="#000000" points="15.9079,-224.3 86.0921,-224.3 "/>
<text text-anchor="middle" x="51" y="-207.7" font-family="Times,serif" font-size="14.00" fill="#000000">...</text>
</g>
<!-- 1&#45;&gt;2 -->
<g id="edge1" class="edge">
<title>1-&gt;2</title>
<path fill="none" stroke="#000000" d="M70.5,-370.3934C70.5,-370.3934 70.5,-290.8581 70.5,-290.8581"/>
<polygon fill="none" stroke="#000000" points="70.5001,-370.3934 74.5,-376.3935 70.5,-382.3934 66.5,-376.3934 70.5001,-370.3934"/>
<text text-anchor="middle" x="71.7769" y="-332.4" font-family="Times,serif" font-size="14.00" fill="#000000"> + has</text>
</g>
<!-- 3 -->
<g id="node3" class="node">
<title>3</title>
<polygon fill="#f2f2f2" stroke="#000000" points="103.9079,-199.5 103.9079,-290.7 174.0921,-290.7 174.0921,-199.5 103.9079,-199.5"/>
<text text-anchor="middle" x="139" y="-274.1" font-family="Times,serif" font-size="14.00" fill="#000000">"Normal"</text>
<text text-anchor="middle" x="139" y="-257.3" font-family="Times,serif" font-size="14.00" fill="#000000">Class C</text>
<polyline fill="none" stroke="#000000" points="103.9079,-249.1 174.0921,-249.1 "/>
<text text-anchor="middle" x="139" y="-232.5" font-family="Times,serif" font-size="14.00" fill="#000000">...</text>
<polyline fill="none" stroke="#000000" points="103.9079,-224.3 174.0921,-224.3 "/>
<text text-anchor="middle" x="139" y="-207.7" font-family="Times,serif" font-size="14.00" fill="#000000">...</text>
</g>
<!-- 1&#45;&gt;3 -->
<g id="edge2" class="edge">
<title>1-&gt;3</title>
<path fill="none" stroke="#000000" d="M114.5,-370.3934C114.5,-370.3934 114.5,-290.8581 114.5,-290.8581"/>
<polygon fill="none" stroke="#000000" points="114.5001,-370.3934 118.5,-376.3935 114.5,-382.3934 110.5,-376.3934 114.5001,-370.3934"/>
<text text-anchor="middle" x="150.7769" y="-332.4" font-family="Times,serif" font-size="14.00" fill="#000000"> + has</text>
</g>
<!-- 4 -->
<g id="node4" class="node">
<title>4</title>
<polygon fill="#f2f2f2" stroke="#000000" points="285.9079,-382.5 285.9079,-473.7 356.0921,-473.7 356.0921,-382.5 285.9079,-382.5"/>
<text text-anchor="middle" x="321" y="-457.1" font-family="Times,serif" font-size="14.00" fill="#000000">"Normal"</text>
<text text-anchor="middle" x="321" y="-440.3" font-family="Times,serif" font-size="14.00" fill="#000000">Class A</text>
<polyline fill="none" stroke="#000000" points="285.9079,-432.1 356.0921,-432.1 "/>
<text text-anchor="middle" x="321" y="-415.5" font-family="Times,serif" font-size="14.00" fill="#000000">...</text>
<polyline fill="none" stroke="#000000" points="285.9079,-407.3 356.0921,-407.3 "/>
<text text-anchor="middle" x="321" y="-390.7" font-family="Times,serif" font-size="14.00" fill="#000000">...</text>
</g>
<!-- 5 -->
<g id="node5" class="node">
<title>5</title>
<polygon fill="#f2f2f2" stroke="#000000" points="197.9079,-199.5 197.9079,-290.7 268.0921,-290.7 268.0921,-199.5 197.9079,-199.5"/>
<text text-anchor="middle" x="233" y="-274.1" font-family="Times,serif" font-size="14.00" fill="#000000">"Normal"</text>
<text text-anchor="middle" x="233" y="-257.3" font-family="Times,serif" font-size="14.00" fill="#000000">Class B</text>
<polyline fill="none" stroke="#000000" points="197.9079,-249.1 268.0921,-249.1 "/>
<text text-anchor="middle" x="233" y="-232.5" font-family="Times,serif" font-size="14.00" fill="#000000">...</text>
<polyline fill="none" stroke="#000000" points="197.9079,-224.3 268.0921,-224.3 "/>
<text text-anchor="middle" x="233" y="-207.7" font-family="Times,serif" font-size="14.00" fill="#000000">...</text>
</g>
<!-- 4&#45;&gt;5 -->
<g id="edge3" class="edge">
<title>4-&gt;5</title>
<path fill="none" stroke="#000000" d="M273.7141,-428C273.7141,-428 233,-428 233,-428 233,-428 233,-344.9553 233,-290.7816"/>
<polygon fill="none" stroke="#000000" points="273.7141,-428.0001 279.7141,-424 285.7141,-428 279.7141,-432 273.7141,-428.0001"/>
<text text-anchor="middle" x="258.7769" y="-332.4" font-family="Times,serif" font-size="14.00" fill="#000000"> + has</text>
</g>
<!-- 6 -->
<g id="node6" class="node">
<title>6</title>
<polygon fill="#f2f2f2" stroke="#000000" points="285.9079,-199.5 285.9079,-290.7 356.0921,-290.7 356.0921,-199.5 285.9079,-199.5"/>
<text text-anchor="middle" x="321" y="-274.1" font-family="Times,serif" font-size="14.00" fill="#000000">"Normal"</text>
<text text-anchor="middle" x="321" y="-257.3" font-family="Times,serif" font-size="14.00" fill="#000000">Class C</text>
<polyline fill="none" stroke="#000000" points="285.9079,-249.1 356.0921,-249.1 "/>
<text text-anchor="middle" x="321" y="-232.5" font-family="Times,serif" font-size="14.00" fill="#000000">...</text>
<polyline fill="none" stroke="#000000" points="285.9079,-224.3 356.0921,-224.3 "/>
<text text-anchor="middle" x="321" y="-207.7" font-family="Times,serif" font-size="14.00" fill="#000000">...</text>
</g>
<!-- 4&#45;&gt;6 -->
<g id="edge4" class="edge">
<title>4-&gt;6</title>
<path fill="none" stroke="#000000" d="M321,-370.3934C321,-370.3934 321,-290.8581 321,-290.8581"/>
<polygon fill="none" stroke="#000000" points="321.0001,-370.3934 325,-376.3935 321,-382.3934 317,-376.3934 321.0001,-370.3934"/>
<text text-anchor="middle" x="337.7769" y="-332.4" font-family="Times,serif" font-size="14.00" fill="#000000"> + has</text>
</g>
<!-- 7 -->
<g id="node7" class="node">
<title>7</title>
<polygon fill="#f2f2f2" stroke="#000000" points="373.9079,-199.5 373.9079,-290.7 444.0921,-290.7 444.0921,-199.5 373.9079,-199.5"/>
<text text-anchor="middle" x="409" y="-274.1" font-family="Times,serif" font-size="14.00" fill="#000000">"Normal"</text>
<text text-anchor="middle" x="409" y="-257.3" font-family="Times,serif" font-size="14.00" fill="#000000">Class D</text>
<polyline fill="none" stroke="#000000" points="373.9079,-249.1 444.0921,-249.1 "/>
<text text-anchor="middle" x="409" y="-232.5" font-family="Times,serif" font-size="14.00" fill="#000000">...</text>
<polyline fill="none" stroke="#000000" points="373.9079,-224.3 444.0921,-224.3 "/>
<text text-anchor="middle" x="409" y="-207.7" font-family="Times,serif" font-size="14.00" fill="#000000">...</text>
</g>
<!-- 4&#45;&gt;7 -->
<g id="edge5" class="edge">
<title>4-&gt;7</title>
<path fill="none" stroke="#000000" d="M368.2859,-428C368.2859,-428 409,-428 409,-428 409,-428 409,-344.9553 409,-290.7816"/>
<polygon fill="none" stroke="#000000" points="368.2859,-428.0001 362.2859,-432 356.2859,-428 362.2859,-424 368.2859,-428.0001"/>
<text text-anchor="middle" x="416.7769" y="-332.4" font-family="Times,serif" font-size="14.00" fill="#000000"> + has</text>
</g>
<!-- 8 -->
<g id="node8" class="node">
<title>8</title>
<polygon fill="#f2f2f2" stroke="#000000" points="467.9079,-382.5 467.9079,-473.7 538.0921,-473.7 538.0921,-382.5 467.9079,-382.5"/>
<text text-anchor="middle" x="503" y="-457.1" font-family="Times,serif" font-size="14.00" fill="#000000">"Normal"</text>
<text text-anchor="middle" x="503" y="-440.3" font-family="Times,serif" font-size="14.00" fill="#000000">Class A</text>
<polyline fill="none" stroke="#000000" points="467.9079,-432.1 538.0921,-432.1 "/>
<text text-anchor="middle" x="503" y="-415.5" font-family="Times,serif" font-size="14.00" fill="#000000">...</text>
<polyline fill="none" stroke="#000000" points="467.9079,-407.3 538.0921,-407.3 "/>
<text text-anchor="middle" x="503" y="-390.7" font-family="Times,serif" font-size="14.00" fill="#000000">...</text>
</g>
<!-- 9 -->
<g id="node9" class="node">
<title>9</title>
<polygon fill="#f2f2f2" stroke="#000000" points="467.9079,-199.5 467.9079,-290.7 538.0921,-290.7 538.0921,-199.5 467.9079,-199.5"/>
<text text-anchor="middle" x="503" y="-274.1" font-family="Times,serif" font-size="14.00" fill="#000000">"Normal"</text>
<text text-anchor="middle" x="503" y="-257.3" font-family="Times,serif" font-size="14.00" fill="#000000">Class B</text>
<polyline fill="none" stroke="#000000" points="467.9079,-249.1 538.0921,-249.1 "/>
<text text-anchor="middle" x="503" y="-232.5" font-family="Times,serif" font-size="14.00" fill="#000000">...</text>
<polyline fill="none" stroke="#000000" points="467.9079,-224.3 538.0921,-224.3 "/>
<text text-anchor="middle" x="503" y="-207.7" font-family="Times,serif" font-size="14.00" fill="#000000">...</text>
</g>
<!-- 8&#45;&gt;9 -->
<g id="edge6" class="edge">
<title>8-&gt;9</title>
<path fill="none" stroke="#000000" d="M503,-370.3934C503,-370.3934 503,-290.8581 503,-290.8581"/>
<polygon fill="none" stroke="#000000" points="503.0001,-370.3934 507,-376.3935 503,-382.3934 499,-376.3934 503.0001,-370.3934"/>
<text text-anchor="middle" x="519.7769" y="-332.4" font-family="Times,serif" font-size="14.00" fill="#000000"> + has</text>
</g>
<!-- 10 -->
<g id="node10" class="node">
<title>10</title>
<polygon fill="#f2f2f2" stroke="#000000" points="467.9079,-16.5 467.9079,-107.7 538.0921,-107.7 538.0921,-16.5 467.9079,-16.5"/>
<text text-anchor="middle" x="503" y="-91.1" font-family="Times,serif" font-size="14.00" fill="#000000">"Normal"</text>
<text text-anchor="middle" x="503" y="-74.3" font-family="Times,serif" font-size="14.00" fill="#000000">Class C</text>
<polyline fill="none" stroke="#000000" points="467.9079,-66.1 538.0921,-66.1 "/>
<text text-anchor="middle" x="503" y="-49.5" font-family="Times,serif" font-size="14.00" fill="#000000">...</text>
<polyline fill="none" stroke="#000000" points="467.9079,-41.3 538.0921,-41.3 "/>
<text text-anchor="middle" x="503" y="-24.7" font-family="Times,serif" font-size="14.00" fill="#000000">...</text>
</g>
<!-- 9&#45;&gt;10 -->
<g id="edge7" class="edge">
<title>9-&gt;10</title>
<path fill="none" stroke="#000000" d="M503,-187.3934C503,-187.3934 503,-107.8581 503,-107.8581"/>
<polygon fill="none" stroke="#000000" points="503.0001,-187.3934 507,-193.3935 503,-199.3934 499,-193.3934 503.0001,-187.3934"/>
<text text-anchor="middle" x="519.7769" y="-149.4" font-family="Times,serif" font-size="14.00" fill="#000000"> + has</text>
</g>
<!-- 11 -->
<g id="node11" class="node">
<title>11</title>
<polygon fill="#f2f2f2" stroke="#000000" points="600.9079,-382.5 600.9079,-473.7 671.0921,-473.7 671.0921,-382.5 600.9079,-382.5"/>
<text text-anchor="middle" x="636" y="-457.1" font-family="Times,serif" font-size="14.00" fill="#000000">"Normal"</text>
<text text-anchor="middle" x="636" y="-440.3" font-family="Times,serif" font-size="14.00" fill="#000000">Class A</text>
<polyline fill="none" stroke="#000000" points="600.9079,-432.1 671.0921,-432.1 "/>
<text text-anchor="middle" x="636" y="-415.5" font-family="Times,serif" font-size="14.00" fill="#000000">...</text>
<polyline fill="none" stroke="#000000" points="600.9079,-407.3 671.0921,-407.3 "/>
<text text-anchor="middle" x="636" y="-390.7" font-family="Times,serif" font-size="14.00" fill="#000000">...</text>
</g>
<!-- 12 -->
<g id="node12" class="node">
<title>12</title>
<polygon fill="#f2f2f2" stroke="#000000" points="561.9079,-199.5 561.9079,-290.7 632.0921,-290.7 632.0921,-199.5 561.9079,-199.5"/>
<text text-anchor="middle" x="597" y="-274.1" font-family="Times,serif" font-size="14.00" fill="#000000">"Normal"</text>
<text text-anchor="middle" x="597" y="-257.3" font-family="Times,serif" font-size="14.00" fill="#000000">Class B</text>
<polyline fill="none" stroke="#000000" points="561.9079,-249.1 632.0921,-249.1 "/>
<text text-anchor="middle" x="597" y="-232.5" font-family="Times,serif" font-size="14.00" fill="#000000">...</text>
<polyline fill="none" stroke="#000000" points="561.9079,-224.3 632.0921,-224.3 "/>
<text text-anchor="middle" x="597" y="-207.7" font-family="Times,serif" font-size="14.00" fill="#000000">...</text>
</g>
<!-- 11&#45;&gt;12 -->
<g id="edge8" class="edge">
<title>11-&gt;12</title>
<path fill="none" stroke="#000000" d="M616.5,-370.3934C616.5,-370.3934 616.5,-290.8581 616.5,-290.8581"/>
<polygon fill="none" stroke="#000000" points="616.5001,-370.3934 620.5,-376.3935 616.5,-382.3934 612.5,-376.3934 616.5001,-370.3934"/>
<text text-anchor="middle" x="617.7769" y="-332.4" font-family="Times,serif" font-size="14.00" fill="#000000"> + has</text>
</g>
<!-- 13 -->
<g id="node13" class="node">
<title>13</title>
<polygon fill="#f2f2f2" stroke="#000000" points="649.9079,-199.5 649.9079,-290.7 720.0921,-290.7 720.0921,-199.5 649.9079,-199.5"/>
<text text-anchor="middle" x="685" y="-274.1" font-family="Times,serif" font-size="14.00" fill="#000000">"Normal"</text>
<text text-anchor="middle" x="685" y="-257.3" font-family="Times,serif" font-size="14.00" fill="#000000">Class C</text>
<polyline fill="none" stroke="#000000" points="649.9079,-249.1 720.0921,-249.1 "/>
<text text-anchor="middle" x="685" y="-232.5" font-family="Times,serif" font-size="14.00" fill="#000000">...</text>
<polyline fill="none" stroke="#000000" points="649.9079,-224.3 720.0921,-224.3 "/>
<text text-anchor="middle" x="685" y="-207.7" font-family="Times,serif" font-size="14.00" fill="#000000">...</text>
</g>
<!-- 11&#45;&gt;13 -->
<g id="edge9" class="edge">
<title>11-&gt;13</title>
<path fill="none" stroke="#000000" d="M660.5,-370.3934C660.5,-370.3934 660.5,-290.8581 660.5,-290.8581"/>
<polygon fill="none" stroke="#000000" points="660.5001,-370.3934 664.5,-376.3935 660.5,-382.3934 656.5,-376.3934 660.5001,-370.3934"/>
<text text-anchor="middle" x="695.1599" y="-332.4" font-family="Times,serif" font-size="14.00" fill="#000000"> - has</text>
</g>
<!-- 14 -->
<g id="node14" class="node">
<title>14</title>
<polygon fill="#f2f2f2" stroke="#000000" points="743.9079,-199.5 743.9079,-290.7 814.0921,-290.7 814.0921,-199.5 743.9079,-199.5"/>
<text text-anchor="middle" x="779" y="-274.1" font-family="Times,serif" font-size="14.00" fill="#000000">"Normal"</text>
<text text-anchor="middle" x="779" y="-257.3" font-family="Times,serif" font-size="14.00" fill="#000000">Class A</text>
<polyline fill="none" stroke="#000000" points="743.9079,-249.1 814.0921,-249.1 "/>
<text text-anchor="middle" x="779" y="-232.5" font-family="Times,serif" font-size="14.00" fill="#000000">...</text>
<polyline fill="none" stroke="#000000" points="743.9079,-224.3 814.0921,-224.3 "/>
<text text-anchor="middle" x="779" y="-207.7" font-family="Times,serif" font-size="14.00" fill="#000000">...</text>
</g>
<!-- 15 -->
<g id="node15" class="node">
<title>15</title>
<polygon fill="#f2f2f2" stroke="#000000" points="743.9079,-16.5 743.9079,-107.7 814.0921,-107.7 814.0921,-16.5 743.9079,-16.5"/>
<text text-anchor="middle" x="779" y="-91.1" font-family="Times,serif" font-size="14.00" fill="#000000">"Normal"</text>
<text text-anchor="middle" x="779" y="-74.3" font-family="Times,serif" font-size="14.00" fill="#000000">Class B</text>
<polyline fill="none" stroke="#000000" points="743.9079,-66.1 814.0921,-66.1 "/>
<text text-anchor="middle" x="779" y="-49.5" font-family="Times,serif" font-size="14.00" fill="#000000">...</text>
<polyline fill="none" stroke="#000000" points="743.9079,-41.3 814.0921,-41.3 "/>
<text text-anchor="middle" x="779" y="-24.7" font-family="Times,serif" font-size="14.00" fill="#000000">...</text>
</g>
<!-- 14&#45;&gt;15 -->
<g id="edge10" class="edge">
<title>14-&gt;15</title>
<path fill="none" stroke="#000000" d="M779,-187.3934C779,-187.3934 779,-107.8581 779,-107.8581"/>
<polygon fill="none" stroke="#000000" points="779.0001,-187.3934 783,-193.3935 779,-199.3934 775,-193.3934 779.0001,-187.3934"/>
<text text-anchor="middle" x="795.7769" y="-149.4" font-family="Times,serif" font-size="14.00" fill="#000000"> + has</text>
</g>
<!-- 16 -->
<g id="node16" class="node">
<title>16</title>
<polygon fill="#f2f2f2" stroke="#000000" points="743.9079,-382.5 743.9079,-473.7 814.0921,-473.7 814.0921,-382.5 743.9079,-382.5"/>
<text text-anchor="middle" x="779" y="-457.1" font-family="Times,serif" font-size="14.00" fill="#000000">"Normal"</text>
<text text-anchor="middle" x="779" y="-440.3" font-family="Times,serif" font-size="14.00" fill="#000000">Class C</text>
<polyline fill="none" stroke="#000000" points="743.9079,-432.1 814.0921,-432.1 "/>
<text text-anchor="middle" x="779" y="-415.5" font-family="Times,serif" font-size="14.00" fill="#000000">...</text>
<polyline fill="none" stroke="#000000" points="743.9079,-407.3 814.0921,-407.3 "/>
<text text-anchor="middle" x="779" y="-390.7" font-family="Times,serif" font-size="14.00" fill="#000000">...</text>
</g>
<!-- 16&#45;&gt;14 -->
<g id="edge11" class="edge">
<title>16-&gt;14</title>
<path fill="none" stroke="#000000" d="M779,-372.3934C779,-372.3934 779,-290.8581 779,-290.8581"/>
<polygon fill="#000000" stroke="#000000" points="779,-382.3934 774.5001,-372.3934 779,-377.3934 779.0001,-372.3934 779.0001,-372.3934 779.0001,-372.3934 779,-377.3934 783.5001,-372.3935 779,-382.3934 779,-382.3934"/>
<text text-anchor="middle" x="798.197" y="-332.4" font-family="Times,serif" font-size="14.00" fill="#000000"> + references</text>
</g>
<!-- 17 -->
<g id="node17" class="node">
<title>17</title>
<polygon fill="#f2f2f2" stroke="#000000" points="893.9079,-382.5 893.9079,-473.7 964.0921,-473.7 964.0921,-382.5 893.9079,-382.5"/>
<text text-anchor="middle" x="929" y="-457.1" font-family="Times,serif" font-size="14.00" fill="#000000">"Normal"</text>
<text text-anchor="middle" x="929" y="-440.3" font-family="Times,serif" font-size="14.00" fill="#000000">Class A</text>
<polyline fill="none" stroke="#000000" points="893.9079,-432.1 964.0921,-432.1 "/>
<text text-anchor="middle" x="929" y="-415.5" font-family="Times,serif" font-size="14.00" fill="#000000">...</text>
<polyline fill="none" stroke="#000000" points="893.9079,-407.3 964.0921,-407.3 "/>
<text text-anchor="middle" x="929" y="-390.7" font-family="Times,serif" font-size="14.00" fill="#000000">...</text>
</g>
<!-- 18 -->
<g id="node18" class="node">
<title>18</title>
<polygon fill="#f2f2f2" stroke="#000000" points="857.9079,-199.5 857.9079,-290.7 928.0921,-290.7 928.0921,-199.5 857.9079,-199.5"/>
<text text-anchor="middle" x="893" y="-274.1" font-family="Times,serif" font-size="14.00" fill="#000000">"Normal"</text>
<text text-anchor="middle" x="893" y="-257.3" font-family="Times,serif" font-size="14.00" fill="#000000">Class B</text>
<polyline fill="none" stroke="#000000" points="857.9079,-249.1 928.0921,-249.1 "/>
<text text-anchor="middle" x="893" y="-232.5" font-family="Times,serif" font-size="14.00" fill="#000000">...</text>
<polyline fill="none" stroke="#000000" points="857.9079,-224.3 928.0921,-224.3 "/>
<text text-anchor="middle" x="893" y="-207.7" font-family="Times,serif" font-size="14.00" fill="#000000">...</text>
</g>
<!-- 17&#45;&gt;18 -->
<g id="edge12" class="edge">
<title>17-&gt;18</title>
<path fill="none" stroke="#000000" d="M911,-370.3934C911,-370.3934 911,-290.8581 911,-290.8581"/>
<polygon fill="#000000" stroke="#000000" points="911.0001,-370.3934 915,-376.3935 911,-382.3934 907,-376.3934 911.0001,-370.3934"/>
<text text-anchor="middle" x="902.8744" y="-332.4" font-family="Times,serif" font-size="14.00" fill="#000000"> + creates</text>
</g>
<!-- 19 -->
<g id="node19" class="node">
<title>19</title>
<polygon fill="#f2f2f2" stroke="#000000" points="945.9079,-199.5 945.9079,-290.7 1016.0921,-290.7 1016.0921,-199.5 945.9079,-199.5"/>
<text text-anchor="middle" x="981" y="-274.1" font-family="Times,serif" font-size="14.00" fill="#000000">"Normal"</text>
<text text-anchor="middle" x="981" y="-257.3" font-family="Times,serif" font-size="14.00" fill="#000000">Class C</text>
<polyline fill="none" stroke="#000000" points="945.9079,-249.1 1016.0921,-249.1 "/>
<text text-anchor="middle" x="981" y="-232.5" font-family="Times,serif" font-size="14.00" fill="#000000">...</text>
<polyline fill="none" stroke="#000000" points="945.9079,-224.3 1016.0921,-224.3 "/>
<text text-anchor="middle" x="981" y="-207.7" font-family="Times,serif" font-size="14.00" fill="#000000">...</text>
</g>
<!-- 17&#45;&gt;19 -->
<g id="edge13" class="edge">
<title>17-&gt;19</title>
<path fill="none" stroke="#000000" d="M955,-370.3934C955,-370.3934 955,-290.8581 955,-290.8581"/>
<polygon fill="#000000" stroke="#000000" points="955.0001,-370.3934 959,-376.3935 955,-382.3934 951,-376.3934 955.0001,-370.3934"/>
<text text-anchor="middle" x="992.8744" y="-332.4" font-family="Times,serif" font-size="14.00" fill="#000000"> + creates</text>
</g>
<!-- 20 -->
<g id="node20" class="node">
<title>20</title>
<polygon fill="#f2f2f2" stroke="#000000" points="1079.9079,-382.5 1079.9079,-473.7 1150.0921,-473.7 1150.0921,-382.5 1079.9079,-382.5"/>
<text text-anchor="middle" x="1115" y="-457.1" font-family="Times,serif" font-size="14.00" fill="#000000">"Normal"</text>
<text text-anchor="middle" x="1115" y="-440.3" font-family="Times,serif" font-size="14.00" fill="#000000">Class A</text>
<polyline fill="none" stroke="#000000" points="1079.9079,-432.1 1150.0921,-432.1 "/>
<text text-anchor="middle" x="1115" y="-415.5" font-family="Times,serif" font-size="14.00" fill="#000000">...</text>
<polyline fill="none" stroke="#000000" points="1079.9079,-407.3 1150.0921,-407.3 "/>
<text text-anchor="middle" x="1115" y="-390.7" font-family="Times,serif" font-size="14.00" fill="#000000">...</text>
</g>
<!-- 21 -->
<g id="node21" class="node">
<title>21</title>
<polygon fill="#f2f2f2" stroke="#000000" points="1043.9079,-199.5 1043.9079,-290.7 1114.0921,-290.7 1114.0921,-199.5 1043.9079,-199.5"/>
<text text-anchor="middle" x="1079" y="-274.1" font-family="Times,serif" font-size="14.00" fill="#000000">"Normal"</text>
<text text-anchor="middle" x="1079" y="-257.3" font-family="Times,serif" font-size="14.00" fill="#000000">Class B</text>
<polyline fill="none" stroke="#000000" points="1043.9079,-249.1 1114.0921,-249.1 "/>
<text text-anchor="middle" x="1079" y="-232.5" font-family="Times,serif" font-size="14.00" fill="#000000">...</text>
<polyline fill="none" stroke="#000000" points="1043.9079,-224.3 1114.0921,-224.3 "/>
<text text-anchor="middle" x="1079" y="-207.7" font-family="Times,serif" font-size="14.00" fill="#000000">...</text>
</g>
<!-- 20&#45;&gt;21 -->
<g id="edge14" class="edge">
<title>20-&gt;21</title>
<path fill="none" stroke="#000000" d="M1097,-370.3934C1097,-370.3934 1097,-290.8581 1097,-290.8581"/>
<polygon fill="#000000" stroke="#000000" points="1097.0001,-370.3934 1101,-376.3935 1097,-382.3934 1093,-376.3934 1097.0001,-370.3934"/>
<text text-anchor="middle" x="1088.8744" y="-332.4" font-family="Times,serif" font-size="14.00" fill="#000000"> + creates</text>
</g>
<!-- 22 -->
<g id="node22" class="node">
<title>22</title>
<polygon fill="#f2f2f2" stroke="#000000" points="1131.9079,-199.5 1131.9079,-290.7 1202.0921,-290.7 1202.0921,-199.5 1131.9079,-199.5"/>
<text text-anchor="middle" x="1167" y="-274.1" font-family="Times,serif" font-size="14.00" fill="#000000">"Normal"</text>
<text text-anchor="middle" x="1167" y="-257.3" font-family="Times,serif" font-size="14.00" fill="#000000">Class C</text>
<polyline fill="none" stroke="#000000" points="1131.9079,-249.1 1202.0921,-249.1 "/>
<text text-anchor="middle" x="1167" y="-232.5" font-family="Times,serif" font-size="14.00" fill="#000000">...</text>
<polyline fill="none" stroke="#000000" points="1131.9079,-224.3 1202.0921,-224.3 "/>
<text text-anchor="middle" x="1167" y="-207.7" font-family="Times,serif" font-size="14.00" fill="#000000">...</text>
</g>
<!-- 20&#45;&gt;22 -->
<g id="edge15" class="edge">
<title>20-&gt;22</title>
<path fill="none" stroke="#000000" d="M1141,-370.3934C1141,-370.3934 1141,-290.8581 1141,-290.8581"/>
<polygon fill="#000000" stroke="#000000" points="1141.0001,-370.3934 1145,-376.3935 1141,-382.3934 1137,-376.3934 1141.0001,-370.3934"/>
<text text-anchor="middle" x="1177.2574" y="-332.4" font-family="Times,serif" font-size="14.00" fill="#000000"> - creates</text>
</g>
<!-- 23 -->
<g id="node23" class="node">
<title>23</title>
<polygon fill="#f2f2f2" stroke="#000000" points="1270.9079,-382.5 1270.9079,-473.7 1341.0921,-473.7 1341.0921,-382.5 1270.9079,-382.5"/>
<text text-anchor="middle" x="1306" y="-457.1" font-family="Times,serif" font-size="14.00" fill="#000000">"Normal"</text>
<text text-anchor="middle" x="1306" y="-440.3" font-family="Times,serif" font-size="14.00" fill="#000000">Class A</text>
<polyline fill="none" stroke="#000000" points="1270.9079,-432.1 1341.0921,-432.1 "/>
<text text-anchor="middle" x="1306" y="-415.5" font-family="Times,serif" font-size="14.00" fill="#000000">...</text>
<polyline fill="none" stroke="#000000" points="1270.9079,-407.3 1341.0921,-407.3 "/>
<text text-anchor="middle" x="1306" y="-390.7" font-family="Times,serif" font-size="14.00" fill="#000000">...</text>
</g>
<!-- 24 -->
<g id="node24" class="node">
<title>24</title>
<polygon fill="#f2f2f2" stroke="#000000" points="1226.9079,-199.5 1226.9079,-290.7 1297.0921,-290.7 1297.0921,-199.5 1226.9079,-199.5"/>
<text text-anchor="middle" x="1262" y="-274.1" font-family="Times,serif" font-size="14.00" fill="#000000">"Normal"</text>
<text text-anchor="middle" x="1262" y="-257.3" font-family="Times,serif" font-size="14.00" fill="#000000">Class B</text>
<polyline fill="none" stroke="#000000" points="1226.9079,-249.1 1297.0921,-249.1 "/>
<text text-anchor="middle" x="1262" y="-232.5" font-family="Times,serif" font-size="14.00" fill="#000000">...</text>
<polyline fill="none" stroke="#000000" points="1226.9079,-224.3 1297.0921,-224.3 "/>
<text text-anchor="middle" x="1262" y="-207.7" font-family="Times,serif" font-size="14.00" fill="#000000">...</text>
</g>
<!-- 23&#45;&gt;24 -->
<g id="edge16" class="edge">
<title>23-&gt;24</title>
<path fill="none" stroke="#000000" d="M1284,-370.3934C1284,-370.3934 1284,-290.8581 1284,-290.8581"/>
<polygon fill="#000000" stroke="#000000" points="1284.0001,-370.3934 1288,-376.3935 1284,-382.3934 1280,-376.3934 1284.0001,-370.3934"/>
<text text-anchor="middle" x="1286.8744" y="-332.4" font-family="Times,serif" font-size="14.00" fill="#000000"> + creates</text>
</g>
<!-- 25 -->
<g id="node25" class="node">
<title>25</title>
<polygon fill="#f2f2f2" stroke="#000000" points="1314.9079,-199.5 1314.9079,-290.7 1385.0921,-290.7 1385.0921,-199.5 1314.9079,-199.5"/>
<text text-anchor="middle" x="1350" y="-274.1" font-family="Times,serif" font-size="14.00" fill="#000000">"Normal"</text>
<text text-anchor="middle" x="1350" y="-257.3" font-family="Times,serif" font-size="14.00" fill="#000000">Class C</text>
<polyline fill="none" stroke="#000000" points="1314.9079,-249.1 1385.0921,-249.1 "/>
<text text-anchor="middle" x="1350" y="-232.5" font-family="Times,serif" font-size="14.00" fill="#000000">...</text>
<polyline fill="none" stroke="#000000" points="1314.9079,-224.3 1385.0921,-224.3 "/>
<text text-anchor="middle" x="1350" y="-207.7" font-family="Times,serif" font-size="14.00" fill="#000000">...</text>
</g>
<!-- 23&#45;&gt;25 -->
<g id="edge17" class="edge">
<title>23-&gt;25</title>
<path fill="none" stroke="#000000" d="M1328,-370.3934C1328,-370.3934 1328,-290.8581 1328,-290.8581"/>
<polygon fill="none" stroke="#000000" points="1328.0001,-370.3934 1332,-376.3935 1328,-382.3934 1324,-376.3934 1328.0001,-370.3934"/>
<text text-anchor="middle" x="1366.7769" y="-332.4" font-family="Times,serif" font-size="14.00" fill="#000000"> + has</text>
</g>
<!-- 26 -->
<g id="node26" class="node">
<title>26</title>
<polygon fill="#f2f2f2" stroke="#000000" points="1441.9079,-382.5 1441.9079,-473.7 1512.0921,-473.7 1512.0921,-382.5 1441.9079,-382.5"/>
<text text-anchor="middle" x="1477" y="-457.1" font-family="Times,serif" font-size="14.00" fill="#000000">"Normal"</text>
<text text-anchor="middle" x="1477" y="-440.3" font-family="Times,serif" font-size="14.00" fill="#000000">Class A</text>
<polyline fill="none" stroke="#000000" points="1441.9079,-432.1 1512.0921,-432.1 "/>
<text text-anchor="middle" x="1477" y="-415.5" font-family="Times,serif" font-size="14.00" fill="#000000">...</text>
<polyline fill="none" stroke="#000000" points="1441.9079,-407.3 1512.0921,-407.3 "/>
<text text-anchor="middle" x="1477" y="-390.7" font-family="Times,serif" font-size="14.00" fill="#000000">...</text>
</g>
<!-- 27 -->
<g id="node27" class="node">
<title>27</title>
<polygon fill="#f2f2f2" stroke="#000000" points="1408.9079,-199.5 1408.9079,-290.7 1479.0921,-290.7 1479.0921,-199.5 1408.9079,-199.5"/>
<text text-anchor="middle" x="1444" y="-274.1" font-family="Times,serif" font-size="14.00" fill="#000000">"Normal"</text>
<text text-anchor="middle" x="1444" y="-257.3" font-family="Times,serif" font-size="14.00" fill="#000000">Class B</text>
<polyline fill="none" stroke="#000000" points="1408.9079,-249.1 1479.0921,-249.1 "/>
<text text-anchor="middle" x="1444" y="-232.5" font-family="Times,serif" font-size="14.00" fill="#000000">...</text>
<polyline fill="none" stroke="#000000" points="1408.9079,-224.3 1479.0921,-224.3 "/>
<text text-anchor="middle" x="1444" y="-207.7" font-family="Times,serif" font-size="14.00" fill="#000000">...</text>
</g>
<!-- 26&#45;&gt;27 -->
<g id="edge18" class="edge">
<title>26-&gt;27</title>
<path fill="none" stroke="#000000" d="M1460.5,-370.3934C1460.5,-370.3934 1460.5,-290.8581 1460.5,-290.8581"/>
<polygon fill="none" stroke="#000000" points="1460.5001,-370.3934 1464.5,-376.3935 1460.5,-382.3934 1456.5,-376.3934 1460.5001,-370.3934"/>
<text text-anchor="middle" x="1464.1599" y="-332.4" font-family="Times,serif" font-size="14.00" fill="#000000"> - has</text>
</g>
<!-- 28 -->
<g id="node28" class="node">
<title>28</title>
<polygon fill="#f2f2f2" stroke="#000000" points="1496.9079,-199.5 1496.9079,-290.7 1567.0921,-290.7 1567.0921,-199.5 1496.9079,-199.5"/>
<text text-anchor="middle" x="1532" y="-274.1" font-family="Times,serif" font-size="14.00" fill="#000000">"Normal"</text>
<text text-anchor="middle" x="1532" y="-257.3" font-family="Times,serif" font-size="14.00" fill="#000000">Class C</text>
<polyline fill="none" stroke="#000000" points="1496.9079,-249.1 1567.0921,-249.1 "/>
<text text-anchor="middle" x="1532" y="-232.5" font-family="Times,serif" font-size="14.00" fill="#000000">...</text>
<polyline fill="none" stroke="#000000" points="1496.9079,-224.3 1567.0921,-224.3 "/>
<text text-anchor="middle" x="1532" y="-207.7" font-family="Times,serif" font-size="14.00" fill="#000000">...</text>
</g>
<!-- 26&#45;&gt;28 -->
<g id="edge19" class="edge">
<title>26-&gt;28</title>
<path fill="none" stroke="#000000" d="M1504.5,-370.3934C1504.5,-370.3934 1504.5,-290.8581 1504.5,-290.8581"/>
<polygon fill="none" stroke="#000000" points="1504.5001,-370.3934 1508.5,-376.3935 1504.5,-382.3934 1500.5,-376.3934 1504.5001,-370.3934"/>
<text text-anchor="middle" x="1541.1599" y="-332.4" font-family="Times,serif" font-size="14.00" fill="#000000"> - has</text>
</g>
<!-- 29 -->
<g id="node29" class="node">
<title>29</title>
<polygon fill="#f2f2f2" stroke="#000000" points="1626.9079,-382.5 1626.9079,-473.7 1697.0921,-473.7 1697.0921,-382.5 1626.9079,-382.5"/>
<text text-anchor="middle" x="1662" y="-457.1" font-family="Times,serif" font-size="14.00" fill="#000000">"Normal"</text>
<text text-anchor="middle" x="1662" y="-440.3" font-family="Times,serif" font-size="14.00" fill="#000000">Class A</text>
<polyline fill="none" stroke="#000000" points="1626.9079,-432.1 1697.0921,-432.1 "/>
<text text-anchor="middle" x="1662" y="-415.5" font-family="Times,serif" font-size="14.00" fill="#000000">...</text>
<polyline fill="none" stroke="#000000" points="1626.9079,-407.3 1697.0921,-407.3 "/>
<text text-anchor="middle" x="1662" y="-390.7" font-family="Times,serif" font-size="14.00" fill="#000000">...</text>
</g>
<!-- 30 -->
<g id="node30" class="node">
<title>30</title>
<polygon fill="#f2f2f2" stroke="#000000" points="1590.9079,-199.5 1590.9079,-290.7 1661.0921,-290.7 1661.0921,-199.5 1590.9079,-199.5"/>
<text text-anchor="middle" x="1626" y="-274.1" font-family="Times,serif" font-size="14.00" fill="#000000">"Normal"</text>
<text text-anchor="middle" x="1626" y="-257.3" font-family="Times,serif" font-size="14.00" fill="#000000">Class B</text>
<polyline fill="none" stroke="#000000" points="1590.9079,-249.1 1661.0921,-249.1 "/>
<text text-anchor="middle" x="1626" y="-232.5" font-family="Times,serif" font-size="14.00" fill="#000000">...</text>
<polyline fill="none" stroke="#000000" points="1590.9079,-224.3 1661.0921,-224.3 "/>
<text text-anchor="middle" x="1626" y="-207.7" font-family="Times,serif" font-size="14.00" fill="#000000">...</text>
</g>
<!-- 29&#45;&gt;30 -->
<g id="edge20" class="edge">
<title>29-&gt;30</title>
<path fill="none" stroke="#000000" d="M1644,-370.3934C1644,-370.3934 1644,-290.8581 1644,-290.8581"/>
<polygon fill="#000000" stroke="#000000" points="1644.0001,-370.3934 1648,-376.3935 1644,-382.3934 1640,-376.3934 1644.0001,-370.3934"/>
<text text-anchor="middle" x="1636.2574" y="-332.4" font-family="Times,serif" font-size="14.00" fill="#000000"> - creates</text>
</g>
<!-- 31 -->
<g id="node31" class="node">
<title>31</title>
<polygon fill="#f2f2f2" stroke="#000000" points="1678.9079,-199.5 1678.9079,-290.7 1749.0921,-290.7 1749.0921,-199.5 1678.9079,-199.5"/>
<text text-anchor="middle" x="1714" y="-274.1" font-family="Times,serif" font-size="14.00" fill="#000000">"Normal"</text>
<text text-anchor="middle" x="1714" y="-257.3" font-family="Times,serif" font-size="14.00" fill="#000000">Class C</text>
<polyline fill="none" stroke="#000000" points="1678.9079,-249.1 1749.0921,-249.1 "/>
<text text-anchor="middle" x="1714" y="-232.5" font-family="Times,serif" font-size="14.00" fill="#000000">...</text>
<polyline fill="none" stroke="#000000" points="1678.9079,-224.3 1749.0921,-224.3 "/>
<text text-anchor="middle" x="1714" y="-207.7" font-family="Times,serif" font-size="14.00" fill="#000000">...</text>
</g>
<!-- 29&#45;&gt;31 -->
<g id="edge21" class="edge">
<title>29-&gt;31</title>
<path fill="none" stroke="#000000" d="M1688,-370.3934C1688,-370.3934 1688,-290.8581 1688,-290.8581"/>
<polygon fill="#000000" stroke="#000000" points="1688.0001,-370.3934 1692,-376.3935 1688,-382.3934 1684,-376.3934 1688.0001,-370.3934"/>
<text text-anchor="middle" x="1723.2574" y="-332.4" font-family="Times,serif" font-size="14.00" fill="#000000"> - creates</text>
</g>
<!-- 32 -->
<g id="node32" class="node">
<title>32</title>
<polygon fill="#f2f2f2" stroke="#000000" points="1816.9079,-382.5 1816.9079,-473.7 1887.0921,-473.7 1887.0921,-382.5 1816.9079,-382.5"/>
<text text-anchor="middle" x="1852" y="-457.1" font-family="Times,serif" font-size="14.00" fill="#000000">"Normal"</text>
<text text-anchor="middle" x="1852" y="-440.3" font-family="Times,serif" font-size="14.00" fill="#000000">Class A</text>
<polyline fill="none" stroke="#000000" points="1816.9079,-432.1 1887.0921,-432.1 "/>
<text text-anchor="middle" x="1852" y="-415.5" font-family="Times,serif" font-size="14.00" fill="#000000">...</text>
<polyline fill="none" stroke="#000000" points="1816.9079,-407.3 1887.0921,-407.3 "/>
<text text-anchor="middle" x="1852" y="-390.7" font-family="Times,serif" font-size="14.00" fill="#000000">...</text>
</g>
<!-- 33 -->
<g id="node33" class="node">
<title>33</title>
<polygon fill="#f2f2f2" stroke="#000000" points="1772.9079,-199.5 1772.9079,-290.7 1843.0921,-290.7 1843.0921,-199.5 1772.9079,-199.5"/>
<text text-anchor="middle" x="1808" y="-274.1" font-family="Times,serif" font-size="14.00" fill="#000000">"Normal"</text>
<text text-anchor="middle" x="1808" y="-257.3" font-family="Times,serif" font-size="14.00" fill="#000000">Class B</text>
<polyline fill="none" stroke="#000000" points="1772.9079,-249.1 1843.0921,-249.1 "/>
<text text-anchor="middle" x="1808" y="-232.5" font-family="Times,serif" font-size="14.00" fill="#000000">...</text>
<polyline fill="none" stroke="#000000" points="1772.9079,-224.3 1843.0921,-224.3 "/>
<text text-anchor="middle" x="1808" y="-207.7" font-family="Times,serif" font-size="14.00" fill="#000000">...</text>
</g>
<!-- 32&#45;&gt;33 -->
<g id="edge22" class="edge">
<title>32-&gt;33</title>
<path fill="none" stroke="#000000" d="M1830,-370.3934C1830,-370.3934 1830,-290.8581 1830,-290.8581"/>
<polygon fill="#000000" stroke="#000000" points="1830.0001,-370.3934 1834,-376.3935 1830,-382.3934 1826,-376.3934 1830.0001,-370.3934"/>
<text text-anchor="middle" x="1833.2574" y="-332.4" font-family="Times,serif" font-size="14.00" fill="#000000"> - creates</text>
</g>
<!-- 34 -->
<g id="node34" class="node">
<title>34</title>
<polygon fill="#f2f2f2" stroke="#000000" points="1860.9079,-199.5 1860.9079,-290.7 1931.0921,-290.7 1931.0921,-199.5 1860.9079,-199.5"/>
<text text-anchor="middle" x="1896" y="-274.1" font-family="Times,serif" font-size="14.00" fill="#000000">"Normal"</text>
<text text-anchor="middle" x="1896" y="-257.3" font-family="Times,serif" font-size="14.00" fill="#000000">Class C</text>
<polyline fill="none" stroke="#000000" points="1860.9079,-249.1 1931.0921,-249.1 "/>
<text text-anchor="middle" x="1896" y="-232.5" font-family="Times,serif" font-size="14.00" fill="#000000">...</text>
<polyline fill="none" stroke="#000000" points="1860.9079,-224.3 1931.0921,-224.3 "/>
<text text-anchor="middle" x="1896" y="-207.7" font-family="Times,serif" font-size="14.00" fill="#000000">...</text>
</g>
<!-- 32&#45;&gt;34 -->
<g id="edge23" class="edge">
<title>32-&gt;34</title>
<path fill="none" stroke="#000000" d="M1874,-370.3934C1874,-370.3934 1874,-290.8581 1874,-290.8581"/>
<polygon fill="none" stroke="#000000" points="1874.0001,-370.3934 1878,-376.3935 1874,-382.3934 1870,-376.3934 1874.0001,-370.3934"/>
<text text-anchor="middle" x="1910.1599" y="-332.4" font-family="Times,serif" font-size="14.00" fill="#000000"> - has</text>
</g>
</g>
</svg>