<?xml version="1.0" encoding="UTF-8" standalone="no"?><!DOCTYPE svg PUBLIC "-//W3C//DTD SVG 1.1//EN" "http://www.w3.org/Graphics/SVG/1.1/DTD/svg11.dtd"><!-- Generated by graphviz version 2.40.1 (20161225.0304)
 --><!-- Title: G Pages: 1 --><svg xmlns="http://www.w3.org/2000/svg" xmlns:xlink="http://www.w3.org/1999/xlink" width="1955pt" height="498pt" viewBox="0.00 0.00 1955.00 498.20">
<g id="graph0" class="graph" transform="scale(1 1) rotate(0) translate(4 494.2)">
<title>G</title>
<polygon fill="#ffffff" stroke="transparent" points="-4,4 -4,-494.2 1951,-494.2 1951,4 -4,4"/>
<g id="clust1" class="cluster">
<title>cluster_1</title>
<polygon fill="none" stroke="#000000" points="8,-8 8,-482.2 114,-482.2 114,-8 8,-8"/>
</g>
<g id="clust2" class="cluster">
<title>cluster_2</title>
<polygon fill="none" stroke="#000000" points="122,-191 122,-482.2 296,-482.2 296,-191 122,-191"/>
</g>
<g id="clust3" class="cluster">
<title>cluster_3</title>
<polygon fill="none" stroke="#000000" points="304,-191 304,-482.2 566,-482.2 566,-191 304,-191"/>
</g>
<g id="clust4" class="cluster">
<title>cluster_4</title>
<polygon fill="none" stroke="#000000" points="574,-8 574,-482.2 660,-482.2 660,-8 574,-8"/>
</g>
<g id="clust5" class="cluster">
<title>cluster_5</title>
<polygon fill="none" stroke="#000000" points="668,-191 668,-482.2 842,-482.2 842,-191 668,-191"/>
</g>
<g id="clust6" class="cluster">
<title>cluster_6</title>
<polygon fill="none" stroke="#000000" points="850,-191 850,-482.2 1028,-482.2 1028,-191 850,-191"/>
</g>
<g id="clust7" class="cluster">
<title>cluster_7</title>
<polygon fill="none" stroke="#000000" points="1036,-191 1036,-482.2 1211,-482.2 1211,-191 1036,-191"/>
</g>
<g id="clust8" class="cluster">
<title>cluster_8</title>
<polygon fill="none" stroke="#000000" points="1219,-191 1219,-482.2 1393,-482.2 1393,-191 1219,-191"/>
</g>
<g id="clust9" class="cluster">
<title>cluster_9</title>
<polygon fill="none" stroke="#000000" points="1401,-191 1401,-482.2 1575,-482.2 1575,-191 1401,-191"/>
</g>
<g id="clust10" class="cluster">
<title>cluster_10</title>
<polygon fill="none" stroke="#000000" points="1583,-191 1583,-482.2 1757,-482.2 1757,-191 1583,-191"/>
</g>
<g id="clust11" class="cluster">
<title>cluster_11</title>
<polygon fill="none" stroke="#000000" points="1765,-191 1765,-482.2 1939,-482.2 1939,-191 1765,-191"/>
</g>
<!-- 1 -->
<g id="node1" class="node">
<title>1</title>
<polygon fill="#f2f2f2" stroke="#000000" points="15.9079,-199.5 15.9079,-290.7 86.0921,-290.7 86.0921,-199.5 15.9079,-199.5"/>
<text text-anchor="middle" x="51" y="-274.1" font-family="Times,serif" font-size="14.00" fill="#000000">"Normal"</text>
<text text-anchor="middle" x="51" y="-257.3" font-family="Times,serif" font-size="14.00" fill="#000000">Class A</text>
<polyline fill="none" stroke="#000000" points="15.9079,-249.1 86.0921,-249.1 "/>
<text text-anchor="middle" x="51" y="-232.5" font-family="Times,serif" font-size="14.00" fill="#000000">...</text>
<polyline fill="none" stroke="#000000" points="15.9079,-224.3 86.0921,-224.3 "/>
<text text-anchor="middle" x="51" y="-207.7" font-family="Times,serif" font-size="14.00" fill="#000000">...</text>
</g>
<!-- 2 -->
<g id="node2" class="node">
<title>2</title>
<polygon fill="#f2f2f2" stroke="#000000" points="15.9079,-16.5 15.9079,-107.7 86.0921,-107.7 86.0921,-16.5 15.9079,-16.5"/>
<text text-anchor="middle" x="51" y="-91.1" font-family="Times,serif" font-size="14.00" fill="#000000">"Normal"</text>
<text text-anchor="middle" x="51" y="-74.3" font-family="Times,serif" font-size="14.00" fill="#000000">Class B</text>
<polyline fill="none" stroke="#000000" points="15.9079,-66.1 86.0921,-66.1 "/>
<text text-anchor="middle" x="51" y="-49.5" font-family="Times,serif" font-size="14.00" fill="#000000">...</text>
<polyline fill="none" stroke="#000000" points="15.9079,-41.3 86.0921,-41.3 "/>
<text text-anchor="middle" x="51" y="-24.7" font-family="Times,serif" font-size="14.00" fill="#000000">...</text>
</g>
<!-- 1&#45;&gt;2 -->
<g id="edge1" class="edge">
<title>1-&gt;2</title>
<path fill="none" stroke="#000000" d="M51,-187.3934C51,-187.3934 51,-107.8581 51,-107.8581"/>
<polygon fill="none" stroke="#000000" points="51.0001,-187.3934 55,-193.3935 51,-199.3934 47,-193.3934 51.0001,-187.3934"/>
<text text-anchor="middle" x="67.7769" y="-149.4" font-family="Times,serif" font-size="14.00" fill="#000000"> + has</text>
</g>
<!-- 3 -->
<g id="node3" class="node">
<title>3</title>
<polygon fill="#f2f2f2" stroke="#000000" points="15.9079,-382.5 15.9079,-473.7 86.0921,-473.7 86.0921,-382.5 15.9079,-382.5"/>
<text text-anchor="middle" x="51" y="-457.1" font-family="Times,serif" font-size="14.00" fill="#000000">"Normal"</text>
<text text-anchor="middle" x="51" y="-440.3" font-family="Times,serif" font-size="14.00" fill="#000000">Class C</text>
<polyline fill="none" stroke="#000000" points="15.9079,-432.1 86.0921,-432.1 "/>
<text text-anchor="middle" x="51" y="-415.5" font-family="Times,serif" font-size="14.00" fill="#000000">...</text>
<polyline fill="none" stroke="#000000" points="15.9079,-407.3 86.0921,-407.3 "/>
<text text-anchor="middle" x="51" y="-390.7" font-family="Times,serif" font-size="14.00" fill="#000000">...</text>
</g>
<!-- 3&#45;&gt;1 -->
<g id="edge2" class="edge">
<title>3-&gt;1</title>
<path fill="none" stroke="#000000" d="M51,-372.3934C51,-372.3934 51,-290.8581 51,-290.8581"/>
<polygon fill="#000000" stroke="#000000" points="51,-382.3934 46.5001,-372.3934 51,-377.3934 51.0001,-372.3934 51.0001,-372.3934 51.0001,-372.3934 51,-377.3934 55.5001,-372.3935 51,-382.3934 51,-382.3934"/>
<text text-anchor="middle" x="70.197" y="-332.4" font-family="Times,serif" font-size="14.00" fill="#000000"> + references</text>
</g>
<!-- 4 -->
<g id="node4" class="node">
<title>4</title>
<polygon fill="#f2f2f2" stroke="#000000" points="164.9079,-382.5 164.9079,-473.7 235.0921,-473.7 235.0921,-382.5 164.9079,-382.5"/>
<text text-anchor="middle" x="200" y="-457.1" font-family="Times,serif" font-size="14.00" fill="#000000">"Normal"</text>
<text text-anchor="middle" x="200" y="-440.3" font-family="Times,serif" font-size="14.00" fill="#000000">Class A</text>
<polyline fill="none" stroke="#000000" points="164.9079,-432.1 235.0921,-432.1 "/>
<text text-anchor="middle" x="200" y="-415.5" font-family="Times,serif" font-size="14.00" fill="#000000">...</text>
<polyline fill="none" stroke="#000000" points="164.9079,-407.3 235.0921,-407.3 "/>
<text text-anchor="middle" x="200" y="-390.7" font-family="Times,serif" font-size="14.00" fill="#000000">...</text>
</g>
<!-- 5 -->
<g id="node5" class="node">
<title>5</title>
<polygon fill="#f2f2f2" stroke="#000000" points="129.9079,-199.5 129.9079,-290.7 200.0921,-290.7 200.0921,-199.5 129.9079,-199.5"/>
<text text-anchor="middle" x="165" y="-274.1" font-family="Times,serif" font-size="14.00" fill="#000000">"Normal"</text>
<text text-anchor="middle" x="165" y="-257.3" font-family="Times,serif" font-size="14.00" fill="#000000">Class B</text>
<polyline fill="none" stroke="#000000" points="129.9079,-249.1 200.0921,-249.1 "/>
<text text-anchor="middle" x="165" y="-232.5" font-family="Times,serif" font-size="14.00" fill="#000000">...</text>
<polyline fill="none" stroke="#000000" points="129.9079,-224.3 200.0921,-224.3 "/>
<text text-anchor="middle" x="165" y="-207.7" font-family="Times,serif" font-size="14.00" fill="#000000">...</text>
</g>
<!-- 4&#45;&gt;5 -->
<g id="edge3" class="edge">
<title>4-&gt;5</title>
<path fill="none" stroke="#000000" d="M182.5,-370.3934C182.5,-370.3934 182.5,-290.8581 182.5,-290.8581"/>
<polygon fill="none" stroke="#000000" points="182.5001,-370.3934 186.5,-376.3935 182.5,-382.3934 178.5,-376.3934 182.5001,-370.3934"/>
<text text-anchor="middle" x="185.7769" y="-332.4" font-family="Times,serif" font-size="14.00" fill="#000000"> + has</text>
</g>
<!-- 6 -->
<g id="node6" class="node">
<title>6</title>
<polygon fill="#f2f2f2" stroke="#000000" points="217.9079,-199.5 217.9079,-290.7 288.0921,-290.7 288.0921,-199.5 217.9079,-199.5"/>
<text text-anchor="middle" x="253" y="-274.1" font-family="Times,serif" font-size="14.00" fill="#000000">"Normal"</text>
<text text-anchor="middle" x="253" y="-257.3" font-family="Times,serif" font-size="14.00" fill="#000000">Class C</text>
<polyline fill="none" stroke="#000000" points="217.9079,-249.1 288.0921,-249.1 "/>
<text text-anchor="middle" x="253" y="-232.5" font-family="Times,serif" font-size="14.00" fill="#000000">...</text>
<polyline fill="none" stroke="#000000" points="217.9079,-224.3 288.0921,-224.3 "/>
<text text-anchor="middle" x="253" y="-207.7" font-family="Times,serif" font-size="14.00" fill="#000000">...</text>
</g>
<!-- 4&#45;&gt;6 -->
<g id="edge4" class="edge">
<title>4-&gt;6</title>
<path fill="none" stroke="#000000" d="M226.5,-370.3934C226.5,-370.3934 226.5,-290.8581 226.5,-290.8581"/>
<polygon fill="none" stroke="#000000" points="226.5001,-370.3934 230.5,-376.3935 226.5,-382.3934 222.5,-376.3934 226.5001,-370.3934"/>
<text text-anchor="middle" x="264.7769" y="-332.4" font-family="Times,serif" font-size="14.00" fill="#000000"> + has</text>
</g>
<!-- 7 -->
<g id="node7" class="node">
<title>7</title>
<polygon fill="#f2f2f2" stroke="#000000" points="399.9079,-382.5 399.9079,-473.7 470.0921,-473.7 470.0921,-382.5 399.9079,-382.5"/>
<text text-anchor="middle" x="435" y="-457.1" font-family="Times,serif" font-size="14.00" fill="#000000">"Normal"</text>
<text text-anchor="middle" x="435" y="-440.3" font-family="Times,serif" font-size="14.00" fill="#000000">Class A</text>
<polyline fill="none" stroke="#000000" points="399.9079,-432.1 470.0921,-432.1 "/>
<text text-anchor="middle" x="435" y="-415.5" font-family="Times,serif" font-size="14.00" fill="#000000">...</text>
<polyline fill="none" stroke="#000000" points="399.9079,-407.3 470.0921,-407.3 "/>
<text text-anchor="middle" x="435" y="-390.7" font-family="Times,serif" font-size="14.00" fill="#000000">...</text>
</g>
<!-- 8 -->
<g id="node8" class="node">
<title>8</title>
<polygon fill="#f2f2f2" stroke="#000000" points="311.9079,-199.5 311.9079,-290.7 382.0921,-290.7 382.0921,-199.5 311.9079,-199.5"/>
<text text-anchor="middle" x="347" y="-274.1" font-family="Times,serif" font-size="14.00" fill="#000000">"Normal"</text>
<text text-anchor="middle" x="347" y="-257.3" font-family="Times,serif" font-size="14.00" fill="#000000">Class B</text>
<polyline fill="none" stroke="#000000" points="311.9079,-249.1 382.0921,-249.1 "/>
<text text-anchor="middle" x="347" y="-232.5" font-family="Times,serif" font-size="14.00" fill="#000000">...</text>
<polyline fill="none" stroke="#000000" points="311.9079,-224.3 382.0921,-224.3 "/>
<text text-anchor="middle" x="347" y="-207.7" font-family="Times,serif" font-size="14.00" fill="#000000">...</text>
</g>
<!-- 7&#45;&gt;8 -->
<g id="edge5" class="edge">
<title>7-&gt;8</title>
<path fill="none" stroke="#000000" d="M387.7141,-428C387.7141,-428 347,-428 347,-428 347,-428 347,-344.9553 347,-290.7816"/>
<polygon fill="none" stroke="#000000" points="387.7141,-428.0001 393.7141,-424 399.7141,-428 393.7141,-432 387.7141,-428.0001"/>
<text text-anchor="middle" x="372.7769" y="-332.4" font-family="Times,serif" font-size="14.00" fill="#000000"> + has</text>
</g>
<!-- 9 -->
<g id="node9" class="node">
<title>9</title>
<polygon fill="#f2f2f2" stroke="#000000" points="399.9079,-199.5 399.9079,-290.7 470.0921,-290.7 470.0921,-199.5 399.9079,-199.5"/>
<text text-anchor="middle" x="435" y="-274.1" font-family="Times,serif" font-size="14.00" fill="#000000">"Normal"</text>
<text text-anchor="middle" x="435" y="-257.3" font-family="Times,serif" font-size="14.00" fill="#000000">Class C</text>
<polyline fill="none" stroke="#000000" points="399.9079,-249.1 470.0921,-249.1 "/>
<text text-anchor="middle" x="435" y="-232.5" font-family="Times,serif" font-size="14.00" fill="#000000">...</text>
<polyline fill="none" stroke="#000000" points="399.9079,-224.3 470.0921,-224.3 "/>
<text text-anchor="middle" x="435" y="-207.7" font-family="Times,serif" font-size="14.00" fill="#000000">...</text>
</g>
<!-- 7&#45;&gt;9 -->
<g id="edge6" class="edge">
<title>7-&gt;9</title>
<path fill="none" stroke="#000000" d="M435,-370.3934C435,-370.3934 435,-290.8581 435,-290.8581"/>
<polygon fill="none" stroke="#000000" points="435.0001,-370.3934 439,-376.3935 435,-382.3934 431,-376.3934 435.0001,-370.3934"/>
<text text-anchor="middle" x="451.7769" y="-332.4" font-family="Times,serif" font-size="14.00" fill="#000000"> + has</text>
</g>
<!-- 10 -->
<g id="node10" class="node">
<title>10</title>
<polygon fill="#f2f2f2" stroke="#000000" points="487.9079,-199.5 487.9079,-290.7 558.0921,-290.7 558.0921,-199.5 487.9079,-199.5"/>
<text text-anchor="middle" x="523" y="-274.1" font-family="Times,serif" font-size="14.00" fill="#000000">"Normal"</text>
<text text-anchor="middle" x="523" y="-257.3" font-family="Times,serif" font-size="14.00" fill="#000000">Class D</text>
<polyline fill="none" stroke="#000000" points="487.9079,-249.1 558.0921,-249.1 "/>
<text text-anchor="middle" x="523" y="-232.5" font-family="Times,serif" font-size="14.00" fill="#000000">...</text>
<polyline fill="none" stroke="#000000" points="487.9079,-224.3 558.0921,-224.3 "/>
<text text-anchor="middle" x="523" y="-207.7" font-family="Times,serif" font-size="14.00" fill="#000000">...</text>
</g>
<!-- 7&#45;&gt;10 -->
<g id="edge7" class="edge">
<title>7-&gt;10</title>
<path fill="none" stroke="#000000" d="M482.2859,-428C482.2859,-428 523,-428 523,-428 523,-428 523,-344.9553 523,-290.7816"/>
<polygon fill="none" stroke="#000000" points="482.2859,-428.0001 476.2859,-432 470.2859,-428 476.2859,-424 482.2859,-428.0001"/>
<text text-anchor="middle" x="530.7769" y="-332.4" font-family="Times,serif" font-size="14.00" fill="#000000"> + has</text>
</g>
<!-- 11 -->
<g id="node11" class="node">
<title>11</title>
<polygon fill="#f2f2f2" stroke="#000000" points="581.9079,-382.5 581.9079,-473.7 652.0921,-473.7 652.0921,-382.5 581.9079,-382.5"/>
<text text-anchor="middle" x="617" y="-457.1" font-family="Times,serif" font-size="14.00" fill="#000000">"Normal"</text>
<text text-anchor="middle" x="617" y="-440.3" font-family="Times,serif" font-size="14.00" fill="#000000">Class A</text>
<polyline fill="none" stroke="#000000" points="581.9079,-432.1 652.0921,-432.1 "/>
<text text-anchor="middle" x="617" y="-415.5" font-family="Times,serif" font-size="14.00" fill="#000000">...</text>
<polyline fill="none" stroke="#000000" points="581.9079,-407.3 652.0921,-407.3 "/>
<text text-anchor="middle" x="617" y="-390.7" font-family="Times,serif" font-size="14.00" fill="#000000">...</text>
</g>
<!-- 12 -->
<g id="node12" class="node">
<title>12</title>
<polygon fill="#f2f2f2" stroke="#000000" points="581.9079,-199.5 581.9079,-290.7 652.0921,-290.7 652.0921,-199.5 581.9079,-199.5"/>
<text text-anchor="middle" x="617" y="-274.1" font-family="Times,serif" font-size="14.00" fill="#000000">"Normal"</text>
<text text-anchor="middle" x="617" y="-257.3" font-family="Times,serif" font-size="14.00" fill="#000000">Class B</text>
<polyline fill="none" stroke="#000000" points="581.9079,-249.1 652.0921,-249.1 "/>
<text text-anchor="middle" x="617" y="-232.5" font-family="Times,serif" font-size="14.00" fill="#000000">...</text>
<polyline fill="none" stroke="#000000" points="581.9079,-224.3 652.0921,-224.3 "/>
<text text-anchor="middle" x="617" y="-207.7" font-family="Times,serif" font-size="14.00" fill="#000000">...</text>
</g>
<!-- 11&#45;&gt;12 -->
<g id="edge8" class="edge">
<title>11-&gt;12</title>
<path fill="none" stroke="#000000" d="M617,-370.3934C617,-370.3934 617,-290.8581 617,-290.8581"/>
<polygon fill="none" stroke="#000000" points="617.0001,-370.3934 621,-376.3935 617,-382.3934 613,-376.3934 617.0001,-370.3934"/>
<text text-anchor="middle" x="633.7769" y="-332.4" font-family="Times,serif" font-size="14.00" fill="#000000"> + has</text>
</g>
<!-- 13 -->
<g id="node13" class="node">
<title>13</title>
<polygon fill="#f2f2f2" stroke="#000000" points="581.9079,-16.5 581.9079,-107.7 652.0921,-107.7 652.0921,-16.5 581.9079,-16.5"/>
<text text-anchor="middle" x="617" y="-91.1" font-family="Times,serif" font-size="14.00" fill="#000000">"Normal"</text>
<text text-anchor="middle" x="617" y="-74.3" font-family="Times,serif" font-size="14.00" fill="#000000">Class C</text>
<polyline fill="none" stroke="#000000" points="581.9079,-66.1 652.0921,-66.1 "/>
<text text-anchor="middle" x="617" y="-49.5" font-family="Times,serif" font-size="14.00" fill="#000000">...</text>
<polyline fill="none" stroke="#000000" points="581.9079,-41.3 652.0921,-41.3 "/>
<text text-anchor="middle" x="617" y="-24.7" font-family="Times,serif" font-size="14.00" fill="#000000">...</text>
</g>
<!-- 12&#45;&gt;13 -->
<g id="edge9" class="edge">
<title>12-&gt;13</title>
<path fill="none" stroke="#000000" d="M617,-187.3934C617,-187.3934 617,-107.8581 617,-107.8581"/>
<polygon fill="none" stroke="#000000" points="617.0001,-187.3934 621,-193.3935 617,-199.3934 613,-193.3934 617.0001,-187.3934"/>
<text text-anchor="middle" x="633.7769" y="-149.4" font-family="Times,serif" font-size="14.00" fill="#000000"> + has</text>
</g>
<!-- 14 -->
<g id="node14" class="node">
<title>14</title>
<polygon fill="#f2f2f2" stroke="#000000" points="710.9079,-382.5 710.9079,-473.7 781.0921,-473.7 781.0921,-382.5 710.9079,-382.5"/>
<text text-anchor="middle" x="746" y="-457.1" font-family="Times,serif" font-size="14.00" fill="#000000">"Normal"</text>
<text text-anchor="middle" x="746" y="-440.3" font-family="Times,serif" font-size="14.00" fill="#000000">Class A</text>
<polyline fill="none" stroke="#000000" points="710.9079,-432.1 781.0921,-432.1 "/>
<text text-anchor="middle" x="746" y="-415.5" font-family="Times,serif" font-size="14.00" fill="#000000">...</text>
<polyline fill="none" stroke="#000000" points="710.9079,-407.3 781.0921,-407.3 "/>
<text text-anchor="middle" x="746" y="-390.7" font-family="Times,serif" font-size="14.00" fill="#000000">...</text>
</g>
<!-- 15 -->
<g id="node15" class="node">
<title>15</title>
<polygon fill="#f2f2f2" stroke="#000000" points="675.9079,-199.5 675.9079,-290.7 746.0921,-290.7 746.0921,-199.5 675.9079,-199.5"/>
<text text-anchor="middle" x="711" y="-274.1" font-family="Times,serif" font-size="14.00" fill="#000000">"Normal"</text>
<text text-anchor="middle" x="711" y="-257.3" font-family="Times,serif" font-size="14.00" fill="#000000">Class B</text>
<polyline fill="none" stroke="#000000" points="675.9079,-249.1 746.0921,-249.1 "/>
<text text-anchor="middle" x="711" y="-232.5" font-family="Times,serif" font-size="14.00" fill="#000000">...</text>
<polyline fill="none" stroke="#000000" points="675.9079,-224.3 746.0921,-224.3 "/>
<text text-anchor="middle" x="711" y="-207.7" font-family="Times,serif" font-size="14.00" fill="#000000">...</text>
</g>
<!-- 14&#45;&gt;15 -->
<g id="edge10" class="edge">
<title>14-&gt;15</title>
<path fill="none" stroke="#000000" d="M728.5,-370.3934C728.5,-370.3934 728.5,-290.8581 728.5,-290.8581"/>
<polygon fill="none" stroke="#000000" points="728.5001,-370.3934 732.5,-376.3935 728.5,-382.3934 724.5,-376.3934 728.5001,-370.3934"/>
<text text-anchor="middle" x="731.7769" y="-332.4" font-family="Times,serif" font-size="14.00" fill="#000000"> + has</text>
</g>
<!-- 16 -->
<g id="node16" class="node">
<title>16</title>
<polygon fill="#f2f2f2" stroke="#000000" points="763.9079,-199.5 763.9079,-290.7 834.0921,-290.7 834.0921,-199.5 763.9079,-199.5"/>
<text text-anchor="middle" x="799" y="-274.1" font-family="Times,serif" font-size="14.00" fill="#000000">"Normal"</text>
<text text-anchor="middle" x="799" y="-257.3" font-family="Times,serif" font-size="14.00" fill="#000000">Class C</text>
<polyline fill="none" stroke="#000000" points="763.9079,-249.1 834.0921,-249.1 "/>
<text text-anchor="middle" x="799" y="-232.5" font-family="Times,serif" font-size="14.00" fill="#000000">...</text>
<polyline fill="none" stroke="#000000" points="763.9079,-224.3 834.0921,-224.3 "/>
<text text-anchor="middle" x="799" y="-207.7" font-family="Times,serif" font-size="14.00" fill="#000000">...</text>
</g>
<!-- 14&#45;&gt;16 -->
<g id="edge11" class="edge">
<title>14-&gt;16</title>
<path fill="none" stroke="#000000" d="M772.5,-370.3934C772.5,-370.3934 772.5,-290.8581 772.5,-290.8581"/>
<polygon fill="none" stroke="#000000" points="772.5001,-370.3934 776.5,-376.3935 772.5,-382.3934 768.5,-376.3934 772.5001,-370.3934"/>
<text text-anchor="middle" x="809.1599" y="-332.4" font-family="Times,serif" font-size="14.00" fill="#000000"> - has</text>
</g>
<!-- 17 -->
<g id="node17" class="node">
<title>17</title>
<polygon fill="#f2f2f2" stroke="#000000" points="893.9079,-382.5 893.9079,-473.7 964.0921,-473.7 964.0921,-382.5 893.9079,-382.5"/>
<text text-anchor="middle" x="929" y="-457.1" font-family="Times,serif" font-size="14.00" fill="#000000">"Normal"</text>
<text text-anchor="middle" x="929" y="-440.3" font-family="Times,serif" font-size="14.00" fill="#000000">Class A</text>
<polyline fill="none" stroke="#000000" points="893.9079,-432.1 964.0921,-432.1 "/>
<text text-anchor="middle" x="929" y="-415.5" font-family="Times,serif" font-size="14.00" fill="#000000">...</text>
<polyline fill="none" stroke="#000000" points="893.9079,-407.3 964.0921,-407.3 "/>
<text text-anchor="middle" x="929" y="-390.7" font-family="Times,serif" font-size="14.00" fill="#000000">...</text>
</g>
<!-- 18 -->
<g id="node18" class="node">
<title>18</title>
<polygon fill="#f2f2f2" stroke="#000000" points="857.9079,-199.5 857.9079,-290.7 928.0921,-290.7 928.0921,-199.5 857.9079,-199.5"/>
<text text-anchor="middle" x="893" y="-274.1" font-family="Times,serif" font-size="14.00" fill="#000000">"Normal"</text>
<text text-anchor="middle" x="893" y="-257.3" font-family="Times,serif" font-size="14.00" fill="#000000">Class B</text>
<polyline fill="none" stroke="#000000" points="857.9079,-249.1 928.0921,-249.1 "/>
<text text-anchor="middle" x="893" y="-232.5" font-family="Times,serif" font-size="14.00" fill="#000000">...</text>
<polyline fill="none" stroke="#000000" points="857.9079,-224.3 928.0921,-224.3 "/>
<text text-anchor="middle" x="893" y="-207.7" font-family="Times,serif" font-size="14.00" fill="#000000">...</text>
</g>
<!-- 17&#45;&gt;18 -->
<g id="edge12" class="edge">
<title>17-&gt;18</title>
<path fill="none" stroke="#000000" d="M911,-370.3934C911,-370.3934 911,-290.8581 911,-290.8581"/>
<polygon fill="#000000" stroke="#000000" points="911.0001,-370.3934 915,-376.3935 911,-382.3934 907,-376.3934 911.0001,-370.3934"/>
<text text-anchor="middle" x="902.8744" y="-332.4" font-family="Times,serif" font-size="14.00" fill="#000000"> + creates</text>
</g>
<!-- 19 -->
<g id="node19" class="node">
<title>19</title>
<polygon fill="#f2f2f2" stroke="#000000" points="945.9079,-199.5 945.9079,-290.7 1016.0921,-290.7 1016.0921,-199.5 945.9079,-199.5"/>
<text text-anchor="middle" x="981" y="-274.1" font-family="Times,serif" font-size="14.00" fill="#000000">"Normal"</text>
<text text-anchor="middle" x="981" y="-257.3" font-family="Times,serif" font-size="14.00" fill="#000000">Class C</text>
<polyline fill="none" stroke="#000000" points="945.9079,-249.1 1016.0921,-249.1 "/>
<text text-anchor="middle" x="981" y="-232.5" font-family="Times,serif" font-size="14.00" fill="#000000">...</text>
<polyline fill="none" stroke="#000000" points="945.9079,-224.3 1016.0921,-224.3 "/>
<text text-anchor="middle" x="981" y="-207.7" font-family="Times,serif" font-size="14.00" fill="#000000">...</text>
</g>
<!-- 17&#45;&gt;19 -->
<g id="edge13" class="edge">
<title>17-&gt;19</title>
<path fill="none" stroke="#000000" d="M955,-370.3934C955,-370.3934 955,-290.8581 955,-290.8581"/>
<polygon fill="#000000" stroke="#000000" points="955.0001,-370.3934 959,-376.3935 955,-382.3934 951,-376.3934 955.0001,-370.3934"/>
<text text-anchor="middle" x="992.8744" y="-332.4" font-family="Times,serif" font-size="14.00" fill="#000000"> + creates</text>
</g>
<!-- 20 -->
<g id="node20" class="node">
<title>20</title>
<polygon fill="#f2f2f2" stroke="#000000" points="1079.9079,-382.5 1079.9079,-473.7 1150.0921,-473.7 1150.0921,-382.5 1079.9079,-382.5"/>
<text text-anchor="middle" x="1115" y="-457.1" font-family="Times,serif" font-size="14.00" fill="#000000">"Normal"</text>
<text text-anchor="middle" x="1115" y="-440.3" font-family="Times,serif" font-size="14.00" fill="#000000">Class A</text>
<polyline fill="none" stroke="#000000" points="1079.9079,-432.1 1150.0921,-432.1 "/>
<text text-anchor="middle" x="1115" y="-415.5" font-family="Times,serif" font-size="14.00" fill="#000000">...</text>
<polyline fill="none" stroke="#000000" points="1079.9079,-407.3 1150.0921,-407.3 "/>
<text text-anchor="middle" x="1115" y="-390.7" font-family="Times,serif" font-size="14.00" fill="#000000">...</text>
</g>
<!-- 21 -->
<g id="node21" class="node">
<title>21</title>
<polygon fill="#f2f2f2" stroke="#000000" points="1043.9079,-199.5 1043.9079,-290.7 1114.0921,-290.7 1114.0921,-199.5 1043.9079,-199.5"/>
<text text-anchor="middle" x="1079" y="-274.1" font-family="Times,serif" font-size="14.00" fill="#000000">"Normal"</text>
<text text-anchor="middle" x="1079" y="-257.3" font-family="Times,serif" font-size="14.00" fill="#000000">Class B</text>
<polyline fill="none" stroke="#000000" points="1043.9079,-249.1 1114.0921,-249.1 "/>
<text text-anchor="middle" x="1079" y="-232.5" font-family="Times,serif" font-size="14.00" fill="#000000">...</text>
<polyline fill="none" stroke="#000000" points="1043.9079,-224.3 1114.0921,-224.3 "/>
<text text-anchor="middle" x="1079" y="-207.7" font-family="Times,serif" font-size="14.00" fill="#000000">...</text>
</g>
<!-- 20&#45;&gt;21 -->
<g id="edge14" class="edge">
<title>20-&gt;21</title>
<path fill="none" stroke="#000000" d="M1097,-370.3934C1097,-370.3934 1097,-290.8581 1097,-290.8581"/>
<polygon fill="#000000" stroke="#000000" points="1097.0001,-370.3934 1101,-376.3935 1097,-382.3934 1093,-376.3934 1097.0001,-370.3934"/>
<text text-anchor="middle" x="1088.8744" y="-332.4" font-family="Times,serif" font-size="14.00" fill="#000000"> + creates</text>
</g>
<!-- 22 -->
<g id="node22" class="node">
<title>22</title>
<polygon fill="#f2f2f2" stroke="#000000" points="1131.9079,-199.5 1131.9079,-290.7 1202.0921,-290.7 1202.0921,-199.5 1131.9079,-199.5"/>
<text text-anchor="middle" x="1167" y="-274.1" font-family="Times,serif" font-size="14.00" fill="#000000">"Normal"</text>
<text text-anchor="middle" x="1167" y="-257.3" font-family="Times,serif" font-size="14.00" fill="#000000">Class C</text>
<polyline fill="none" stroke="#000000" points="1131.9079,-249.1 1202.0921,-249.1 "/>
<text text-anchor="middle" x="1167" y="-232.5" font-family="Times,serif" font-size="14.00" fill="#000000">...</text>
<polyline fill="none" stroke="#000000" points="1131.9079,-224.3 1202.0921,-224.3 "/>
<text text-anchor="middle" x="1167" y="-207.7" font-family="Times,serif" font-size="14.00" fill="#000000">...</text>
</g>
<!-- 20&#45;&gt;22 -->
<g id="edge15" class="edge">
<title>20-&gt;22</title>
<path fill="none" stroke="#000000" d="M1141,-370.3934C1141,-370.3934 1141,-290.8581 1141,-290.8581"/>
<polygon fill="#000000" stroke="#000000" points="1141.0001,-370.3934 1145,-376.3935 1141,-382.3934 1137,-376.3934 1141.0001,-370.3934"/>
<text text-anchor="middle" x="1177.2574" y="-332.4" font-family="Times,serif" font-size="14.00" fill="#000000"> - creates</text>
</g>
<!-- 23 -->
<g id="node23" class="node">
<title>23</title>
<polygon fill="#f2f2f2" stroke="#000000" points="1270.9079,-382.5 1270.9079,-473.7 1341.0921,-473.7 1341.0921,-382.5 1270.9079,-382.5"/>
<text text-anchor="middle" x="1306" y="-457.1" font-family="Times,serif" font-size="14.00" fill="#000000">"Normal"</text>
<text text-anchor="middle" x="1306" y="-440.3" font-family="Times,serif" font-size="14.00" fill="#000000">Class A</text>
<polyline fill="none" stroke="#000000" points="1270.9079,-432.1 1341.0921,-432.1 "/>
<text text-anchor="middle" x="1306" y="-415.5" font-family="Times,serif" font-size="14.00" fill="#000000">...</text>
<polyline fill="none" stroke="#000000" points="1270.9079,-407.3 1341.0921,-407.3 "/>
<text text-anchor="middle" x="1306" y="-390.7" font-family="Times,serif" font-size="14.00" fill="#000000">...</text>
</g>
<!-- 24 -->
<g id="node24" class="node">
<title>24</title>
<polygon fill="#f2f2f2" stroke="#000000" points="1226.9079,-199.5 1226.9079,-290.7 1297.0921,-290.7 1297.0921,-199.5 1226.9079,-199.5"/>
<text text-anchor="middle" x="1262" y="-274.1" font-family="Times,serif" font-size="14.00" fill="#000000">"Normal"</text>
<text text-anchor="middle" x="1262" y="-257.3" font-family="Times,serif" font-size="14.00" fill="#000000">Class B</text>
<polyline fill="none" stroke="#000000" points="1226.9079,-249.1 1297.0921,-249.1 "/>
<text text-anchor="middle" x="1262" y="-232.5" font-family="Times,serif" font-size="14.00" fill="#000000">...</text>
<polyline fill="none" stroke="#000000" points="1226.9079,-224.3 1297.0921,-224.3 "/>
<text text-anchor="middle" x="1262" y="-207.7" font-family="Times,serif" font-size="14.00" fill="#000000">...</text>
</g>
<!-- 23&#45;&gt;24 -->
<g id="edge16" class="edge">
<title>23-&gt;24</title>
<path fill="none" stroke="#000000" d="M1284,-370.3934C1284,-370.3934 1284,-290.8581 1284,-290.8581"/>
<polygon fill="#000000" stroke="#000000" points="1284.0001,-370.3934 1288,-376.3935 1284,-382.3934 1280,-376.3934 1284.0001,-370.3934"/>
<text text-anchor="middle" x="1286.8744" y="-332.4" font-family="Times,serif" font-size="14.00" fill="#000000"> + creates</text>
</g>
<!-- 25 -->
<g id="node25" class="node">
<title>25</title>
<polygon fill="#f2f2f2" stroke="#000000" points="1314.9079,-199.5 1314.9079,-290.7 1385.0921,-290.7 1385.0921,-199.5 1314.9079,-199.5"/>
<text text-anchor="middle" x="1350" y="-274.1" font-family="Times,serif" font-size="14.00" fill="#000000">"Normal"</text>
<text text-anchor="middle" x="1350" y="-257.3" font-family="Times,serif" font-size="14.00" fill="#000000">Class C</text>
<polyline fill="none" stroke="#000000" points="1314.9079,-249.1 1385.0921,-249.1 "/>
<text text-anchor="middle" x="1350" y="-232.5" font-family="Times,serif" font-size="14.00" fill="#000000">...</text>
<polyline fill="none" stroke="#000000" points="1314.9079,-224.3 1385.0921,-224.3 "/>
<text text-anchor="middle" x="1350" y="-207.7" font-family="Times,serif" font-size="14.00" fill="#000000">...</text>
</g>
<!-- 23&#45;&gt;25 -->
<g id="edge17" class="edge">
<title>23-&gt;25</title>
<path fill="none" stroke="#000000" d="M1328,-370.3934C1328,-370.3934 1328,-290.8581 1328,-290.8581"/>
<polygon fill="none" stroke="#000000" points="1328.0001,-370.3934 1332,-376.3935 1328,-382.3934 1324,-376.3934 1328.0001,-370.3934"/>
<text text-anchor="middle" x="1366.7769" y="-332.4" font-family="Times,serif" font-size="14.00" fill="#000000"> + has</text>
</g>
<!-- 26 -->
<g id="node26" class="node">
<title>26</title>
<polygon fill="#f2f2f2" stroke="#000000" points="1444.9079,-382.5 1444.9079,-473.7 1515.0921,-473.7 1515.0921,-382.5 1444.9079,-382.5"/>
<text text-anchor="middle" x="1480" y="-457.1" font-family="Times,serif" font-size="14.00" fill="#000000">"Normal"</text>
<text text-anchor="middle" x="1480" y="-440.3" font-family="Times,serif" font-size="14.00" fill="#000000">Class A</text>
<polyline fill="none" stroke="#000000" points="1444.9079,-432.1 1515.0921,-432.1 "/>
<text text-anchor="middle" x="1480" y="-415.5" font-family="Times,serif" font-size="14.00" fill="#000000">...</text>
<polyline fill="none" stroke="#000000" points="1444.9079,-407.3 1515.0921,-407.3 "/>
<text text-anchor="middle" x="1480" y="-390.7" font-family="Times,serif" font-size="14.00" fill="#000000">...</text>
</g>
<!-- 27 -->
<g id="node27" class="node">
<title>27</title>
<polygon fill="#f2f2f2" stroke="#000000" points="1408.9079,-199.5 1408.9079,-290.7 1479.0921,-290.7 1479.0921,-199.5 1408.9079,-199.5"/>
<text text-anchor="middle" x="1444" y="-274.1" font-family="Times,serif" font-size="14.00" fill="#000000">"Normal"</text>
<text text-anchor="middle" x="1444" y="-257.3" font-family="Times,serif" font-size="14.00" fill="#000000">Class B</text>
<polyline fill="none" stroke="#000000" points="1408.9079,-249.1 1479.0921,-249.1 "/>
<text text-anchor="middle" x="1444" y="-232.5" font-family="Times,serif" font-size="14.00" fill="#000000">...</text>
<polyline fill="none" stroke="#000000" points="1408.9079,-224.3 1479.0921,-224.3 "/>
<text text-anchor="middle" x="1444" y="-207.7" font-family="Times,serif" font-size="14.00" fill="#000000">...</text>
</g>
<!-- 26&#45;&gt;27 -->
<g id="edge18" class="edge">
<title>26-&gt;27</title>
<path fill="none" stroke="#000000" d="M1462,-370.3934C1462,-370.3934 1462,-290.8581 1462,-290.8581"/>
<polygon fill="#000000" stroke="#000000" points="1462.0001,-370.3934 1466,-376.3935 1462,-382.3934 1458,-376.3934 1462.0001,-370.3934"/>
<text text-anchor="middle" x="1454.2574" y="-332.4" font-family="Times,serif" font-size="14.00" fill="#000000"> - creates</text>
</g>
<!-- 28 -->
<g id="node28" class="node">
<title>28</title>
<polygon fill="#f2f2f2" stroke="#000000" points="1496.9079,-199.5 1496.9079,-290.7 1567.0921,-290.7 1567.0921,-199.5 1496.9079,-199.5"/>
<text text-anchor="middle" x="1532" y="-274.1" font-family="Times,serif" font-size="14.00" fill="#000000">"Normal"</text>
<text text-anchor="middle" x="1532" y="-257.3" font-family="Times,serif" font-size="14.00" fill="#000000">Class C</text>
<polyline fill="none" stroke="#000000" points="1496.9079,-249.1 1567.0921,-249.1 "/>
<text text-anchor="middle" x="1532" y="-232.5" font-family="Times,serif" font-size="14.00" fill="#000000">...</text>
<polyline fill="none" stroke="#000000" points="1496.9079,-224.3 1567.0921,-224.3 "/>
<text text-anchor="middle" x="1532" y="-207.7" font-family="Times,serif" font-size="14.00" fill="#000000">...</text>
</g>
<!-- 26&#45;&gt;28 -->
<g id="edge19" class="edge">
<title>26-&gt;28</title>
<path fill="none" stroke="#000000" d="M1506,-370.3934C1506,-370.3934 1506,-290.8581 1506,-290.8581"/>
<polygon fill="#000000" stroke="#000000" points="1506.0001,-370.3934 1510,-376.3935 1506,-382.3934 1502,-376.3934 1506.0001,-370.3934"/>
<text text-anchor="middle" x="1541.2574" y="-332.4" font-family="Times,serif" font-size="14.00" fill="#000000"> - creates</text>
</g>
<!-- 29 -->
<g id="node29" class="node">
<title>29</title>
<polygon fill="#f2f2f2" stroke="#000000" points="1633.9079,-382.5 1633.9079,-473.7 1704.0921,-473.7 1704.0921,-382.5 1633.9079,-382.5"/>
<text text-anchor="middle" x="1669" y="-457.1" font-family="Times,serif" font-size="14.00" fill="#000000">"Normal"</text>
<text text-anchor="middle" x="1669" y="-440.3" font-family="Times,serif" font-size="14.00" fill="#000000">Class A</text>
<polyline fill="none" stroke="#000000" points="1633.9079,-432.1 1704.0921,-432.1 "/>
<text text-anchor="middle" x="1669" y="-415.5" font-family="Times,serif" font-size="14.00" fill="#000000">...</text>
<polyline fill="none" stroke="#000000" points="1633.9079,-407.3 1704.0921,-407.3 "/>
<text text-anchor="middle" x="1669" y="-390.7" font-family="Times,serif" font-size="14.00" fill="#000000">...</text>
</g>
<!-- 30 -->
<g id="node30" class="node">
<title>30</title>
<polygon fill="#f2f2f2" stroke="#000000" points="1590.9079,-199.5 1590.9079,-290.7 1661.0921,-290.7 1661.0921,-199.5 1590.9079,-199.5"/>
<text text-anchor="middle" x="1626" y="-274.1" font-family="Times,serif" font-size="14.00" fill="#000000">"Normal"</text>
<text text-anchor="middle" x="1626" y="-257.3" font-family="Times,serif" font-size="14.00" fill="#000000">Class B</text>
<polyline fill="none" stroke="#000000" points="1590.9079,-249.1 1661.0921,-249.1 "/>
<text text-anchor="middle" x="1626" y="-232.5" font-family="Times,serif" font-size="14.00" fill="#000000">...</text>
<polyline fill="none" stroke="#000000" points="1590.9079,-224.3 1661.0921,-224.3 "/>
<text text-anchor="middle" x="1626" y="-207.7" font-family="Times,serif" font-size="14.00" fill="#000000">...</text>
</g>
<!-- 29&#45;&gt;30 -->
<g id="edge20" class="edge">
<title>29-&gt;30</title>
<path fill="none" stroke="#000000" d="M1647.5,-370.3934C1647.5,-370.3934 1647.5,-290.8581 1647.5,-290.8581"/>
<polygon fill="#000000" stroke="#000000" points="1647.5001,-370.3934 1651.5,-376.3935 1647.5,-382.3934 1643.5,-376.3934 1647.5001,-370.3934"/>
<text text-anchor="middle" x="1651.2574" y="-332.4" font-family="Times,serif" font-size="14.00" fill="#000000"> - creates</text>
</g>
<!-- 31 -->
<g id="node31" class="node">
<title>31</title>
<polygon fill="#f2f2f2" stroke="#000000" points="1678.9079,-199.5 1678.9079,-290.7 1749.0921,-290.7 1749.0921,-199.5 1678.9079,-199.5"/>
<text text-anchor="middle" x="1714" y="-274.1" font-family="Times,serif" font-size="14.00" fill="#000000">"Normal"</text>
<text text-anchor="middle" x="1714" y="-257.3" font-family="Times,serif" font-size="14.00" fill="#000000">Class C</text>
<polyline fill="none" stroke="#000000" points="1678.9079,-249.1 1749.0921,-249.1 "/>
<text text-anchor="middle" x="1714" y="-232.5" font-family="Times,serif" font-size="14.00" fill="#000000">...</text>
<polyline fill="none" stroke="#000000" points="1678.9079,-224.3 1749.0921,-224.3 "/>
<text text-anchor="middle" x="1714" y="-207.7" font-family="Times,serif" font-size="14.00" fill="#000000">...</text>
</g>
<!-- 29&#45;&gt;31 -->
<g id="edge21" class="edge">
<title>29-&gt;31</title>
<path fill="none" stroke="#000000" d="M1691.5,-370.3934C1691.5,-370.3934 1691.5,-290.8581 1691.5,-290.8581"/>
<polygon fill="none" stroke="#000000" points="1691.5001,-370.3934 1695.5,-376.3935 1691.5,-382.3934 1687.5,-376.3934 1691.5001,-370.3934"/>
<text text-anchor="middle" x="1728.1599" y="-332.4" font-family="Times,serif" font-size="14.00" fill="#000000"> - has</text>
</g>
<!-- 32 -->
<g id="node32" class="node">
<title>32</title>
<polygon fill="#f2f2f2" stroke="#000000" points="1816.9079,-382.5 1816.9079,-473.7 1887.0921,-473.7 1887.0921,-382.5 1816.9079,-382.5"/>
<text text-anchor="middle" x="1852" y="-457.1" font-family="Times,serif" font-size="14.00" fill="#000000">"Normal"</text>
<text text-anchor="middle" x="1852" y="-440.3" font-family="Times,serif" font-size="14.00" fill="#000000">Class A</text>
<polyline fill="none" stroke="#000000" points="1816.9079,-432.1 1887.0921,-432.1 "/>
<text text-anchor="middle" x="1852" y="-415.5" font-family="Times,serif" font-size="14.00" fill="#000000">...</text>
<polyline fill="none" stroke="#000000" points="1816.9079,-407.3 1887.0921,-407.3 "/>
<text text-anchor="middle" x="1852" y="-390.7" font-family="Times,serif" font-size="14.00" fill="#000000">...</text>
</g>
<!-- 33 -->
<g id="node33" class="node">
<title>33</title>
<polygon fill="#f2f2f2" stroke="#000000" points="1772.9079,-199.5 1772.9079,-290.7 1843.0921,-290.7 1843.0921,-199.5 1772.9079,-199.5"/>
<text text-anchor="middle" x="1808" y="-274.1" font-family="Times,serif" font-size="14.00" fill="#000000">"Normal"</text>
<text text-anchor="middle" x="1808" y="-257.3" font-family="Times,serif" font-size="14.00" fill="#000000">Class B</text>
<polyline fill="none" stroke="#000000" points="1772.9079,-249.1 1843.0921,-249.1 "/>
<text text-anchor="middle" x="1808" y="-232.5" font-family="Times,serif" font-size="14.00" fill="#000000">...</text>
<polyline fill="none" stroke="#000000" points="1772.9079,-224.3 1843.0921,-224.3 "/>
<text text-anchor="middle" x="1808" y="-207.7" font-family="Times,serif" font-size="14.00" fill="#000000">...</text>
</g>
<!-- 32&#45;&gt;33 -->
<g id="edge22" class="edge">
<title>32-&gt;33</title>
<path fill="none" stroke="#000000" d="M1830,-370.3934C1830,-370.3934 1830,-290.8581 1830,-290.8581"/>
<polygon fill="none" stroke="#000000" points="1830.0001,-370.3934 1834,-376.3935 1830,-382.3934 1826,-376.3934 1830.0001,-370.3934"/>
<text text-anchor="middle" x="1828.1599" y="-332.4" font-family="Times,serif" font-size="14.00" fill="#000000"> - has</text>
</g>
<!-- 34 -->
<g id="node34" class="node">
<title>34</title>
<polygon fill="#f2f2f2" stroke="#000000" points="1860.9079,-199.5 1860.9079,-290.7 1931.0921,-290.7 1931.0921,-199.5 1860.9079,-199.5"/>
<text text-anchor="middle" x="1896" y="-274.1" font-family="Times,serif" font-size="14.00" fill="#000000">"Normal"</text>
<text text-anchor="middle" x="1896" y="-257.3" font-family="Times,serif" font-size="14.00" fill="#000000">Class C</text>
<polyline fill="none" stroke="#000000" points="1860.9079,-249.1 1931.0921,-249.1 "/>
<text text-anchor="middle" x="1896" y="-232.5" font-family="Times,serif" font-size="14.00" fill="#000000">...</text>
<polyline fill="none" stroke="#000000" points="1860.9079,-224.3 1931.0921,-224.3 "/>
<text text-anchor="middle" x="1896" y="-207.7" font-family="Times,serif" font-size="14.00" fill="#000000">...</text>
</g>
<!-- 32&#45;&gt;34 -->
<g id="edge23" class="edge">
<title>32-&gt;34</title>
<path fill="none" stroke="#000000" d="M1874,-370.3934C1874,-370.3934 1874,-290.8581 1874,-290.8581"/>
<polygon fill="none" stroke="#000000" points="1874.0001,-370.3934 1878,-376.3935 1874,-382.3934 1870,-376.3934 1874.0001,-370.3934"/>
<text text-anchor="middle" x="1905.1599" y="-332.4" font-family="Times,serif" font-size="14.00" fill="#000000"> - has</text>
</g>
</g>
</svg>